<?xml version="1.0" encoding="UTF-8" standalone="no"?>
<svg width="20px" height="20px" viewBox="0 0 20 20" version="1.1" xmlns="http://www.w3.org/2000/svg" xmlns:xlink="http://www.w3.org/1999/xlink" xmlns:sketch="http://www.bohemiancoding.com/sketch/ns">
    <!-- Generator: bin/sketchtool 1.4 (305) - http://www.bohemiancoding.com/sketch -->
    <title>calendar-2</title>
    <desc>Created with bin/sketchtool.</desc>
    <defs></defs>
    <g id="UI-kit" stroke="none" stroke-width="1" fill="none" fill-rule="evenodd" sketch:type="MSPage">
        <g id="market-UI-kit" sketch:type="MSArtboardGroup" transform="translate(-306.000000, -118.000000)" fill="#CECECE">
            <path d="M319.75,119.875 L319.75,118.625 C319.75,118.455729 319.688151,118.309245 319.564453,118.185547 C319.440755,118.061849 319.294271,118 319.125,118 C318.955729,118 318.809245,118.061849 318.685547,118.185547 C318.561849,118.309245 318.5,118.455729 318.5,118.625 L318.5,119.875 L313.5,119.875 L313.5,118.625 C313.5,118.455729 313.438151,118.309245 313.314453,118.185547 C313.190755,118.061849 313.044271,118 312.875,118 C312.705729,118 312.559245,118.061849 312.435547,118.185547 C312.311849,118.309245 312.25,118.455729 312.25,118.625 L312.25,119.875 L307.25,119.875 C306.898437,119.875 306.602213,119.995443 306.361328,120.236328 C306.120443,120.477213 306,120.773437 306,121.125 L306,136.75 C306,137.088541 306.120443,137.381511 306.361328,137.628906 C306.602213,137.876302 306.898437,138 307.25,138 L324.75,138 C325.101563,138 325.397787,137.876302 325.638672,137.628906 C325.879557,137.381511 326,137.088541 326,136.75 L326,121.125 C326,120.773437 325.879557,120.477213 325.638672,120.236328 C325.397787,119.995443 325.101563,119.875 324.75,119.875 L319.75,119.875 Z M324.75,136.75 L307.25,136.75 L307.25,121.125 L312.25,121.125 L312.25,121.75 C312.25,121.919271 312.311849,122.065755 312.435547,122.189453 C312.559245,122.313151 312.705729,122.375 312.875,122.375 C313.044271,122.375 313.190755,122.313151 313.314453,122.189453 C313.438151,122.065755 313.5,121.919271 313.5,121.75 L313.5,121.125 L318.5,121.125 L318.5,121.75 C318.5,121.919271 318.561849,122.065755 318.685547,122.189453 C318.809245,122.313151 318.955729,122.375 319.125,122.375 C319.294271,122.375 319.440755,122.313151 319.564453,122.189453 C319.688151,122.065755 319.75,121.919271 319.75,121.75 L319.75,121.125 L324.75,121.125 L324.75,136.75 Z M320.375,128 L321.625,128 C321.794271,128 321.940755,127.938151 322.064453,127.814453 C322.188151,127.690755 322.25,127.544271 322.25,127.375 L322.25,126.125 C322.25,125.955729 322.188151,125.809245 322.064453,125.685547 C321.940755,125.561849 321.794271,125.5 321.625,125.5 L320.375,125.5 C320.205729,125.5 320.059245,125.561849 319.935547,125.685547 C319.811849,125.809245 319.75,125.955729 319.75,126.125 L319.75,127.375 C319.75,127.544271 319.811849,127.690755 319.935547,127.814453 C320.059245,127.938151 320.205729,128 320.375,128 L320.375,128 Z M320.375,133 L321.625,133 C321.794271,133 321.940755,132.938151 322.064453,132.814453 C322.188151,132.690755 322.25,132.544271 322.25,132.375 L322.25,131.125 C322.25,130.955729 322.188151,130.809245 322.064453,130.685547 C321.940755,130.561849 321.794271,130.5 321.625,130.5 L320.375,130.5 C320.205729,130.5 320.059245,130.561849 319.935547,130.685547 C319.811849,130.809245 319.75,130.955729 319.75,131.125 L319.75,132.375 C319.75,132.544271 319.811849,132.690755 319.935547,132.814453 C320.059245,132.938151 320.205729,133 320.375,133 L320.375,133 Z M316.625,130.5 L315.375,130.5 C315.205729,130.5 315.059245,130.561849 314.935547,130.685547 C314.811849,130.809245 314.75,130.955729 314.75,131.125 L314.75,132.375 C314.75,132.544271 314.811849,132.690755 314.935547,132.814453 C315.059245,132.938151 315.205729,133 315.375,133 L316.625,133 C316.794271,133 316.940755,132.938151 317.064453,132.814453 C317.188151,132.690755 317.25,132.544271 317.25,132.375 L317.25,131.125 C317.25,130.955729 317.188151,130.809245 317.064453,130.685547 C316.940755,130.561849 316.794271,130.5 316.625,130.5 L316.625,130.5 Z M316.625,125.5 L315.375,125.5 C315.205729,125.5 315.059245,125.561849 314.935547,125.685547 C314.811849,125.809245 314.75,125.955729 314.75,126.125 L314.75,127.375 C314.75,127.544271 314.811849,127.690755 314.935547,127.814453 C315.059245,127.938151 315.205729,128 315.375,128 L316.625,128 C316.794271,128 316.940755,127.938151 317.064453,127.814453 C317.188151,127.690755 317.25,127.544271 317.25,127.375 L317.25,126.125 C317.25,125.955729 317.188151,125.809245 317.064453,125.685547 C316.940755,125.561849 316.794271,125.5 316.625,125.5 L316.625,125.5 Z M311.625,125.5 L310.375,125.5 C310.205729,125.5 310.059245,125.561849 309.935547,125.685547 C309.811849,125.809245 309.75,125.955729 309.75,126.125 L309.75,127.375 C309.75,127.544271 309.811849,127.690755 309.935547,127.814453 C310.059245,127.938151 310.205729,128 310.375,128 L311.625,128 C311.794271,128 311.940755,127.938151 312.064453,127.814453 C312.188151,127.690755 312.25,127.544271 312.25,127.375 L312.25,126.125 C312.25,125.955729 312.188151,125.809245 312.064453,125.685547 C311.940755,125.561849 311.794271,125.5 311.625,125.5 L311.625,125.5 Z M311.625,130.5 L310.375,130.5 C310.205729,130.5 310.059245,130.561849 309.935547,130.685547 C309.811849,130.809245 309.75,130.955729 309.75,131.125 L309.75,132.375 C309.75,132.544271 309.811849,132.690755 309.935547,132.814453 C310.059245,132.938151 310.205729,133 310.375,133 L311.625,133 C311.794271,133 311.940755,132.938151 312.064453,132.814453 C312.188151,132.690755 312.25,132.544271 312.25,132.375 L312.25,131.125 C312.25,130.955729 312.188151,130.809245 312.064453,130.685547 C311.940755,130.561849 311.794271,130.5 311.625,130.5 L311.625,130.5 Z" id="calendar" sketch:type="MSShapeGroup"></path>
        </g>
    </g>
</svg>