<?xml version="1.0" encoding="UTF-8" standalone="no"?>
<svg width="15px" height="14px" viewBox="0 0 15 14" version="1.1" xmlns="http://www.w3.org/2000/svg" xmlns:xlink="http://www.w3.org/1999/xlink" xmlns:sketch="http://www.bohemiancoding.com/sketch/ns">
    <!-- Generator: bin/sketchtool 1.4 (305) - http://www.bohemiancoding.com/sketch -->
    <title>calendar</title>
    <desc>Created with bin/sketchtool.</desc>
    <defs></defs>
    <g id="UI-kit" stroke="none" stroke-width="1" fill="none" fill-rule="evenodd" sketch:type="MSPage">
        <g id="market-UI-kit" sketch:type="MSArtboardGroup" transform="translate(-640.000000, -101.000000)" fill="#000000">
            <g id="calendar" sketch:type="MSLayerGroup" transform="translate(640.000000, 101.000000)">
                <g id="Group" sketch:type="MSShapeGroup">
                    <path d="M13.125,14 L1.875,14 C0.8125,14 0,13.1727273 0,12.0909091 L0,3.18181818 C0,2.1 0.8125,1.27272727 1.875,1.27272727 L13.125,1.27272727 C14.1875,1.27272727 15,2.1 15,3.18181818 L15,12.0909091 C15,13.1727273 14.1875,14 13.125,14 L13.125,14 Z M1.875,2.54545455 C1.5,2.54545455 1.25,2.8 1.25,3.18181818 L1.25,12.0909091 C1.25,12.4727273 1.5,12.7272727 1.875,12.7272727 L13.125,12.7272727 C13.5,12.7272727 13.75,12.4727273 13.75,12.0909091 L13.75,3.18181818 C13.75,2.8 13.5,2.54545455 13.125,2.54545455 L1.875,2.54545455 L1.875,2.54545455 Z" id="Shape"></path>
                    <path d="M3.75,3.81818182 C3.375,3.81818182 3.125,3.56363636 3.125,3.18181818 L3.125,0.636363636 C3.125,0.254545455 3.375,0 3.75,0 C4.125,0 4.375,0.254545455 4.375,0.636363636 L4.375,3.18181818 C4.375,3.56363636 4.125,3.81818182 3.75,3.81818182 L3.75,3.81818182 Z" id="Shape"></path>
                    <path d="M11.25,3.81818182 C10.875,3.81818182 10.625,3.56363636 10.625,3.18181818 L10.625,0.636363636 C10.625,0.254545455 10.875,0 11.25,0 C11.625,0 11.875,0.254545455 11.875,0.636363636 L11.875,3.18181818 C11.875,3.56363636 11.625,3.81818182 11.25,3.81818182 L11.25,3.81818182 Z" id="Shape"></path>
                    <path d="M14.375,6.36363636 L0.625,6.36363636 C0.25,6.36363636 0,6.10909091 0,5.72727273 C0,5.34545455 0.25,5.09090909 0.625,5.09090909 L14.375,5.09090909 C14.75,5.09090909 15,5.34545455 15,5.72727273 C15,6.10909091 14.75,6.36363636 14.375,6.36363636 L14.375,6.36363636 Z" id="Shape"></path>
                    <g transform="translate(2.500000, 7.000000)">
                        <ellipse id="Oval" cx="1.25" cy="1.27272727" rx="0.625" ry="0.636363636"></ellipse>
                        <path d="M1.25,2.22727273 C0.75,2.22727273 0.3125,1.78181818 0.3125,1.27272727 C0.3125,0.763636364 0.75,0.318181818 1.25,0.318181818 C1.75,0.318181818 2.1875,0.763636364 2.1875,1.27272727 C2.1875,1.78181818 1.75,2.22727273 1.25,2.22727273 L1.25,2.22727273 Z M1.25,0.954545455 C1.0625,0.954545455 0.9375,1.08181818 0.9375,1.27272727 C0.9375,1.46363636 1.0625,1.59090909 1.25,1.59090909 C1.4375,1.59090909 1.5625,1.46363636 1.5625,1.27272727 C1.5625,1.08181818 1.4375,0.954545455 1.25,0.954545455 L1.25,0.954545455 Z" id="Shape"></path>
                    </g>
                    <g transform="translate(2.500000, 9.545455)">
                        <ellipse id="Oval" cx="1.25" cy="1.27272727" rx="0.625" ry="0.636363636"></ellipse>
                        <path d="M1.25,2.22727273 C0.75,2.22727273 0.3125,1.78181818 0.3125,1.27272727 C0.3125,0.763636364 0.75,0.318181818 1.25,0.318181818 C1.75,0.318181818 2.1875,0.763636364 2.1875,1.27272727 C2.1875,1.78181818 1.75,2.22727273 1.25,2.22727273 L1.25,2.22727273 Z M1.25,0.954545455 C1.0625,0.954545455 0.9375,1.08181818 0.9375,1.27272727 C0.9375,1.46363636 1.0625,1.59090909 1.25,1.59090909 C1.4375,1.59090909 1.5625,1.46363636 1.5625,1.27272727 C1.5625,1.08181818 1.4375,0.954545455 1.25,0.954545455 L1.25,0.954545455 Z" id="Shape"></path>
                    </g>
                    <g transform="translate(5.000000, 9.545455)">
                        <ellipse id="Oval" cx="1.25" cy="1.27272727" rx="0.625" ry="0.636363636"></ellipse>
                        <path d="M1.25,2.22727273 C0.75,2.22727273 0.3125,1.78181818 0.3125,1.27272727 C0.3125,0.763636364 0.75,0.318181818 1.25,0.318181818 C1.75,0.318181818 2.1875,0.763636364 2.1875,1.27272727 C2.1875,1.78181818 1.75,2.22727273 1.25,2.22727273 L1.25,2.22727273 Z M1.25,0.954545455 C1.0625,0.954545455 0.9375,1.08181818 0.9375,1.27272727 C0.9375,1.46363636 1.0625,1.59090909 1.25,1.59090909 C1.4375,1.59090909 1.5625,1.46363636 1.5625,1.27272727 C1.5625,1.08181818 1.4375,0.954545455 1.25,0.954545455 L1.25,0.954545455 Z" id="Shape"></path>
                    </g>
                    <g transform="translate(5.000000, 7.000000)">
                        <ellipse id="Oval" cx="1.25" cy="1.27272727" rx="0.625" ry="0.636363636"></ellipse>
                        <path d="M1.25,2.22727273 C0.75,2.22727273 0.3125,1.78181818 0.3125,1.27272727 C0.3125,0.763636364 0.75,0.318181818 1.25,0.318181818 C1.75,0.318181818 2.1875,0.763636364 2.1875,1.27272727 C2.1875,1.78181818 1.75,2.22727273 1.25,2.22727273 L1.25,2.22727273 Z M1.25,0.954545455 C1.0625,0.954545455 0.9375,1.08181818 0.9375,1.27272727 C0.9375,1.46363636 1.0625,1.59090909 1.25,1.59090909 C1.4375,1.59090909 1.5625,1.46363636 1.5625,1.27272727 C1.5625,1.08181818 1.4375,0.954545455 1.25,0.954545455 L1.25,0.954545455 Z" id="Shape"></path>
                    </g>
                    <g transform="translate(7.500000, 7.000000)">
                        <ellipse id="Oval" cx="1.25" cy="1.27272727" rx="0.625" ry="0.636363636"></ellipse>
                        <path d="M1.25,2.22727273 C0.75,2.22727273 0.3125,1.78181818 0.3125,1.27272727 C0.3125,0.763636364 0.75,0.318181818 1.25,0.318181818 C1.75,0.318181818 2.1875,0.763636364 2.1875,1.27272727 C2.1875,1.78181818 1.75,2.22727273 1.25,2.22727273 L1.25,2.22727273 Z M1.25,0.954545455 C1.0625,0.954545455 0.9375,1.08181818 0.9375,1.27272727 C0.9375,1.46363636 1.0625,1.59090909 1.25,1.59090909 C1.4375,1.59090909 1.5625,1.46363636 1.5625,1.27272727 C1.5625,1.08181818 1.4375,0.954545455 1.25,0.954545455 L1.25,0.954545455 Z" id="Shape"></path>
                    </g>
                    <g transform="translate(7.500000, 9.545455)">
                        <ellipse id="Oval" cx="1.25" cy="1.27272727" rx="0.625" ry="0.636363636"></ellipse>
                        <path d="M1.25,2.22727273 C0.75,2.22727273 0.3125,1.78181818 0.3125,1.27272727 C0.3125,0.763636364 0.75,0.318181818 1.25,0.318181818 C1.75,0.318181818 2.1875,0.763636364 2.1875,1.27272727 C2.1875,1.78181818 1.75,2.22727273 1.25,2.22727273 L1.25,2.22727273 Z M1.25,0.954545455 C1.0625,0.954545455 0.9375,1.08181818 0.9375,1.27272727 C0.9375,1.46363636 1.0625,1.59090909 1.25,1.59090909 C1.4375,1.59090909 1.5625,1.46363636 1.5625,1.27272727 C1.5625,1.08181818 1.4375,0.954545455 1.25,0.954545455 L1.25,0.954545455 Z" id="Shape"></path>
                    </g>
                    <g transform="translate(10.000000, 9.545455)">
                        <ellipse id="Oval" cx="1.25" cy="1.27272727" rx="0.625" ry="0.636363636"></ellipse>
                        <path d="M1.25,2.22727273 C0.75,2.22727273 0.3125,1.78181818 0.3125,1.27272727 C0.3125,0.763636364 0.75,0.318181818 1.25,0.318181818 C1.75,0.318181818 2.1875,0.763636364 2.1875,1.27272727 C2.1875,1.78181818 1.75,2.22727273 1.25,2.22727273 L1.25,2.22727273 Z M1.25,0.954545455 C1.0625,0.954545455 0.9375,1.08181818 0.9375,1.27272727 C0.9375,1.46363636 1.0625,1.59090909 1.25,1.59090909 C1.4375,1.59090909 1.5625,1.46363636 1.5625,1.27272727 C1.5625,1.08181818 1.4375,0.954545455 1.25,0.954545455 L1.25,0.954545455 Z" id="Shape"></path>
                    </g>
                    <g transform="translate(10.000000, 7.000000)">
                        <ellipse id="Oval" cx="1.25" cy="1.27272727" rx="0.625" ry="0.636363636"></ellipse>
                        <path d="M1.25,2.22727273 C0.75,2.22727273 0.3125,1.78181818 0.3125,1.27272727 C0.3125,0.763636364 0.75,0.318181818 1.25,0.318181818 C1.75,0.318181818 2.1875,0.763636364 2.1875,1.27272727 C2.1875,1.78181818 1.75,2.22727273 1.25,2.22727273 L1.25,2.22727273 Z M1.25,0.954545455 C1.0625,0.954545455 0.9375,1.08181818 0.9375,1.27272727 C0.9375,1.46363636 1.0625,1.59090909 1.25,1.59090909 C1.4375,1.59090909 1.5625,1.46363636 1.5625,1.27272727 C1.5625,1.08181818 1.4375,0.954545455 1.25,0.954545455 L1.25,0.954545455 Z" id="Shape"></path>
                    </g>
                </g>
            </g>
        </g>
    </g>
</svg>