<?xml version="1.0" encoding="UTF-8" standalone="no"?>
<svg width="23px" height="31px" viewBox="0 0 23 31" version="1.1" xmlns="http://www.w3.org/2000/svg" xmlns:xlink="http://www.w3.org/1999/xlink" xmlns:sketch="http://www.bohemiancoding.com/sketch/ns">
    <!-- Generator: bin/sketchtool 1.4 (305) - http://www.bohemiancoding.com/sketch -->
    <title>map</title>
    <desc>Created with bin/sketchtool.</desc>
    <defs></defs>
    <g id="UI-kit" stroke="none" stroke-width="1" fill="none" fill-rule="evenodd" sketch:type="MSPage">
        <g id="market-UI-kit" sketch:type="MSArtboardGroup" transform="translate(-350.000000, -29.000000)" fill="#FC9E3F">
            <path d="M361.25,29.5 C358.07,29.58 355.42,30.68 353.3,32.8 C351.18,34.92 350.08,37.57 350,40.75 C350.46,44.25 352.335,48.15 355.625,52.45 C358.915,56.75 360.79,59.1 361.25,59.5 C361.71,59.1 363.585,56.75 366.875,52.45 C370.165,48.15 372.04,44.25 372.5,40.75 C372.42,37.57 371.32,34.92 369.2,32.8 C367.08,30.68 364.43,29.58 361.25,29.5 L361.25,29.5 Z M351.86,40.75 C351.92,38.09 352.835,35.875 354.605,34.105 C356.375,32.335 358.59,31.42 361.25,31.36 C363.89,31.42 366.095,32.335 367.865,34.105 C369.635,35.875 370.55,38.09 370.61,40.75 C370.23,43.69 368.675,46.995 365.945,50.665 C363.215,54.335 361.65,56.34 361.25,56.68 C360.85,56.34 359.285,54.335 356.555,50.665 C353.825,46.995 352.26,43.69 351.86,40.75 L351.86,40.75 Z M361.25,35.11 C359.65,35.15 358.32,35.7 357.26,36.76 C356.2,37.82 355.65,39.15 355.61,40.75 C355.65,42.33 356.2,43.65 357.26,44.71 C358.32,45.77 359.65,46.32 361.25,46.36 C362.83,46.32 364.15,45.77 365.21,44.71 C366.27,43.65 366.82,42.33 366.86,40.75 C366.82,39.15 366.27,37.82 365.21,36.76 C364.15,35.7 362.83,35.15 361.25,35.11 L361.25,35.11 Z M361.25,44.5 C360.19,44.48 359.305,44.115 358.595,43.405 C357.885,42.695 357.52,41.81 357.5,40.75 C357.52,39.69 357.885,38.805 358.595,38.095 C359.305,37.385 360.19,37.02 361.25,37 C362.31,37.02 363.195,37.385 363.905,38.095 C364.615,38.805 364.98,39.69 365,40.75 C364.98,41.81 364.615,42.695 363.905,43.405 C363.195,44.115 362.31,44.48 361.25,44.5 L361.25,44.5 Z" id="map" sketch:type="MSShapeGroup"></path>
        </g>
    </g>
</svg>