<?xml version="1.0" encoding="UTF-8" standalone="no"?>
<svg width="11px" height="15px" viewBox="0 0 11 15" version="1.1" xmlns="http://www.w3.org/2000/svg" xmlns:xlink="http://www.w3.org/1999/xlink" xmlns:sketch="http://www.bohemiancoding.com/sketch/ns">
    <!-- Generator: bin/sketchtool 1.4 (305) - http://www.bohemiancoding.com/sketch -->
    <title>marc</title>
    <desc>Created with bin/sketchtool.</desc>
    <defs></defs>
    <g id="UI-kit" stroke="none" stroke-width="1" fill="none" fill-rule="evenodd" sketch:type="MSPage">
        <g id="market-UI-kit" sketch:type="MSArtboardGroup" transform="translate(-700.000000, -100.000000)" fill-opacity="0.87" fill="#16181B">
            <path d="M709.621333,114.055 L706.277333,114.055 C707.137778,113.035 708.115556,111.6925 709.210667,110.0275 C710.305778,108.3625 710.902222,106.895 711,105.625 C710.960889,104.035 710.423111,102.71 709.386667,101.65 C708.350222,100.59 707.054667,100.04 705.5,100 C703.945333,100.04 702.649778,100.59 701.613333,101.65 C700.576889,102.71 700.039111,104.035 700,105.625 C700.097778,106.895 700.691778,108.3625 701.782,110.0275 C702.872222,111.6925 703.847556,113.035 704.708,114.055 L701.364,114.055 C701.236889,114.055 701.129333,114.1025 701.041333,114.1975 C700.953333,114.2925 700.909333,114.405 700.909333,114.535 C700.909333,114.665 700.953333,114.775 701.041333,114.865 C701.129333,114.955 701.236889,115 701.364,115 L709.621333,115 C709.748444,115 709.856,114.955 709.944,114.865 C710.032,114.775 710.076,114.665 710.076,114.535 C710.076,114.405 710.032,114.2925 709.944,114.1975 C709.856,114.1025 709.748444,114.055 709.621333,114.055 L709.621333,114.055 Z M700.909333,105.685 C700.938667,104.335 701.386,103.2125 702.251333,102.3175 C703.116667,101.4225 704.199556,100.96 705.5,100.93 C706.790667,100.96 707.868667,101.4225 708.734,102.3175 C709.599333,103.2125 710.046667,104.335 710.076,105.685 C709.890222,107.165 709.13,108.81 707.795333,110.62 C706.460667,112.43 705.695556,113.42 705.5,113.59 C705.304444,113.42 704.539333,112.43 703.204667,110.62 C701.87,108.81 701.104889,107.165 700.909333,105.685 L700.909333,105.685 Z" id="marc" sketch:type="MSShapeGroup"></path>
        </g>
    </g>
</svg>