<?xml version="1.0" encoding="UTF-8" standalone="no"?>
<svg width="25px" height="26px" viewBox="0 0 25 26" version="1.1" xmlns="http://www.w3.org/2000/svg" xmlns:xlink="http://www.w3.org/1999/xlink" xmlns:sketch="http://www.bohemiancoding.com/sketch/ns">
    <!-- Generator: bin/sketchtool 1.4 (305) - http://www.bohemiancoding.com/sketch -->
    <title>market</title>
    <desc>Created with bin/sketchtool.</desc>
    <defs></defs>
    <g id="UI-kit" stroke="none" stroke-width="1" fill="none" fill-rule="evenodd" sketch:type="MSPage">
        <g id="market-UI-kit" sketch:type="MSArtboardGroup" transform="translate(-395.000000, -32.000000)" fill="#FC9E3F">
            <path d="M419.998387,41.875 L416.873589,32.5 L398.124798,32.5 L395,41.875 C395,42.5916667 395.137491,43.2791667 395.412473,43.9375 C395.687456,44.5958333 396.066598,45.1583333 396.5499,45.625 L396.5499,57.5 L418.423489,57.5 L418.423489,45.875 C419.006785,45.4416667 419.419258,44.8666667 419.660909,44.15 C419.90256,43.4333333 420.015053,42.675 419.998387,41.875 L419.998387,41.875 Z M399.174731,34.05 L415.823657,34.05 L417.923521,40.3 L397.074866,40.3 L399.174731,34.05 Z M416.873589,55.925 L398.124798,55.925 L398.124798,52.8 L416.873589,52.8 L416.873589,55.925 Z M416.873589,51.25 L398.124798,51.25 L398.124798,46.475 C398.358117,46.525 398.599768,46.55 398.849752,46.55 C399.449713,46.55 400.033009,46.4125 400.599639,46.1375 C401.166269,45.8625 401.641238,45.4833333 402.024547,45 C402.341193,45.4833333 402.720335,45.8625 403.161973,46.1375 C403.603612,46.4125 404.132744,46.55 404.749371,46.55 C405.316001,46.5333333 405.832634,46.375 406.299271,46.075 C406.765908,45.775 407.165882,45.4166667 407.499194,45 C407.832505,45.4166667 408.23248,45.775 408.699116,46.075 C409.165753,46.375 409.682386,46.5333333 410.249016,46.55 C410.865643,46.55 411.394776,46.4125 411.836414,46.1375 C412.278052,45.8625 412.657194,45.4833333 412.97384,45 C413.340483,45.4833333 413.802954,45.8625 414.361251,46.1375 C414.919548,46.4125 415.498678,46.55 416.098639,46.55 C416.365288,46.55 416.623605,46.525 416.873589,46.475 L416.873589,51.25 Z M416.148636,45 C414.99871,44.9333333 414.298755,44.6708333 414.048771,44.2125 C413.798787,43.7541667 413.698794,43.4916667 413.74879,43.425 L412.173892,43.425 C412.207223,43.4916667 412.123895,43.7541667 411.923908,44.2125 C411.723921,44.6708333 411.165624,44.9333333 410.249016,45 C409.299077,44.9333333 408.728281,44.6708333 408.536627,44.2125 C408.344972,43.7541667 408.274144,43.4916667 408.32414,43.425 L406.674247,43.425 C406.724244,43.4916667 406.653415,43.7541667 406.461761,44.2125 C406.270106,44.6708333 405.69931,44.9333333 404.749371,45 C403.816098,44.9333333 403.249468,44.6708333 403.049481,44.2125 C402.849494,43.7541667 402.766166,43.4916667 402.799497,43.425 L401.249597,43.425 C401.216266,44.175 400.953783,44.6333333 400.462148,44.8 C399.970513,44.9666667 399.437214,45.0291667 398.862251,44.9875 C398.287288,44.9458333 397.799819,44.5958333 397.399845,43.9375 C396.999871,43.2791667 396.724889,42.5916667 396.574898,41.875 L418.423489,41.875 C418.473486,42.0083333 418.377658,42.5291667 418.136007,43.4375 C417.894356,44.3458333 417.231899,44.8666667 416.148636,45 L416.148636,45 Z" id="market" sketch:type="MSShapeGroup"></path>
        </g>
    </g>
</svg>