<?xml version="1.0" encoding="UTF-8" standalone="no"?>
<svg width="23px" height="31px" viewBox="0 0 23 31" version="1.1" xmlns="http://www.w3.org/2000/svg" xmlns:xlink="http://www.w3.org/1999/xlink" xmlns:sketch="http://www.bohemiancoding.com/sketch/ns">
    <!-- Generator: bin/sketchtool 1.4 (305) - http://www.bohemiancoding.com/sketch -->
    <title>map copy</title>
    <desc>Created with bin/sketchtool.</desc>
    <defs></defs>
    <g id="UI-kit" stroke="none" stroke-width="1" fill="none" fill-rule="evenodd" sketch:type="MSPage">
        <g id="market-UI-kit" sketch:type="MSArtboardGroup" transform="translate(-349.000000, -71.000000)" fill="#EF4407">
            <path d="M360.25,71.5 C357.07,71.58 354.42,72.68 352.3,74.8 C350.18,76.92 349.08,79.57 349,82.75 C349.46,86.25 351.335,90.15 354.625,94.45 C357.915,98.75 359.79,101.1 360.25,101.5 C360.71,101.1 362.585,98.75 365.875,94.45 C369.165,90.15 371.04,86.25 371.5,82.75 C371.42,79.57 370.32,76.92 368.2,74.8 C366.08,72.68 363.43,71.58 360.25,71.5 L360.25,71.5 Z M350.86,82.75 C350.92,80.09 351.835,77.875 353.605,76.105 C355.375,74.335 357.59,73.42 360.25,73.36 C362.89,73.42 365.095,74.335 366.865,76.105 C368.635,77.875 369.55,80.09 369.61,82.75 C369.23,85.69 367.675,88.995 364.945,92.665 C362.215,96.335 360.65,98.34 360.25,98.68 C359.85,98.34 358.285,96.335 355.555,92.665 C352.825,88.995 351.26,85.69 350.86,82.75 L350.86,82.75 Z M360.25,77.11 C358.65,77.15 357.32,77.7 356.26,78.76 C355.2,79.82 354.65,81.15 354.61,82.75 C354.65,84.33 355.2,85.65 356.26,86.71 C357.32,87.77 358.65,88.32 360.25,88.36 C361.83,88.32 363.15,87.77 364.21,86.71 C365.27,85.65 365.82,84.33 365.86,82.75 C365.82,81.15 365.27,79.82 364.21,78.76 C363.15,77.7 361.83,77.15 360.25,77.11 L360.25,77.11 Z M360.25,86.5 C359.19,86.48 358.305,86.115 357.595,85.405 C356.885,84.695 356.52,83.81 356.5,82.75 C356.52,81.69 356.885,80.805 357.595,80.095 C358.305,79.385 359.19,79.02 360.25,79 C361.31,79.02 362.195,79.385 362.905,80.095 C363.615,80.805 363.98,81.69 364,82.75 C363.98,83.81 363.615,84.695 362.905,85.405 C362.195,86.115 361.31,86.48 360.25,86.5 L360.25,86.5 Z" id="map-copy" sketch:type="MSShapeGroup"></path>
        </g>
    </g>
</svg>