<?xml version="1.0" encoding="UTF-8" standalone="no"?>
<svg width="17px" height="17px" viewBox="0 0 17 17" version="1.1" xmlns="http://www.w3.org/2000/svg" xmlns:xlink="http://www.w3.org/1999/xlink" xmlns:sketch="http://www.bohemiancoding.com/sketch/ns">
    <!-- Generator: bin/sketchtool 1.4 (305) - http://www.bohemiancoding.com/sketch -->
    <title>phone</title>
    <desc>Created with bin/sketchtool.</desc>
    <defs></defs>
    <g id="UI-kit" stroke="none" stroke-width="1" fill="none" fill-rule="evenodd" sketch:type="MSPage">
        <g id="market-UI-kit" sketch:type="MSArtboardGroup" transform="translate(-668.000000, -100.000000)" fill="#000000">
            <path d="M683.5,112.846591 C683.5,112.995042 683.469459,113.210352 683.406176,113.485636 C683.341616,113.766472 683.275714,113.981437 683.212086,114.126045 C683.113826,114.359815 682.755215,114.671395 682.127575,115.019394 C681.534527,115.34113 680.955117,115.5 680.388494,115.5 C680.219209,115.5 680.055479,115.489085 679.897179,115.467358 C679.740443,115.445845 679.558356,115.40626 679.351993,115.34822 C679.134552,115.287065 678.975154,115.238407 678.877788,115.203858 C678.771303,115.166073 678.576305,115.094046 678.29488,114.988512 C678.003649,114.8793 677.827781,114.814696 677.755415,114.790574 C677.102055,114.557111 676.512865,114.277666 675.997458,113.956374 C675.121769,113.415903 674.212192,112.67483 673.268681,111.731319 C672.325168,110.787806 671.584097,109.878231 671.044805,109.004441 C670.722334,108.487134 670.44289,107.897945 670.205956,107.234531 C670.185309,107.172229 670.120719,106.996402 670.011489,106.705121 C669.905956,106.423701 669.833929,106.2287 669.796143,106.122213 C669.761594,106.024848 669.712936,105.865451 669.65178,105.648007 C669.593739,105.441639 669.554155,105.259553 669.532643,105.10282 C669.510915,104.94452 669.5,104.780791 669.5,104.611506 C669.5,104.044882 669.65887,103.465473 669.982807,102.868415 C670.328606,102.244785 670.640186,101.886173 670.866201,101.791247 C671.018561,101.724286 671.233526,101.658385 671.514364,101.593824 C671.789646,101.530541 672.004957,101.5 672.153409,101.5 C672.191124,101.5 672.204331,101.501887 672.180172,101.491533 C672.162045,101.487311 672.315905,101.707941 672.494547,102.065226 C672.584475,102.22242 672.68899,102.410546 672.821937,102.655449 C672.957953,102.906005 673.083377,103.133559 673.198241,103.338162 C673.314168,103.544657 673.426657,103.738791 673.535741,103.920599 C673.580032,103.984078 673.641536,104.07194 673.739474,104.213782 C673.828993,104.34343 673.892692,104.448607 673.929695,104.525258 C673.947782,104.562724 673.954546,104.590259 673.954546,104.611506 C673.954546,104.594083 673.91058,104.671215 673.788423,104.799802 C673.605576,104.992273 673.406642,105.168746 673.19137,105.329397 C672.935548,105.520309 672.698201,105.723202 672.47949,105.938076 C672.18943,106.223047 672.026279,106.48638 672.026279,106.784801 C672.026279,106.916305 672.056276,107.051294 672.110671,107.198161 C672.151949,107.309609 672.188428,107.397589 672.222885,107.466502 C672.256335,107.533403 672.311805,107.628494 672.393848,107.761325 C672.45125,107.854262 672.497984,107.931475 672.494539,107.924585 C673.066237,108.956091 673.711873,109.828071 674.441901,110.558099 C675.17193,111.288128 676.043909,111.933764 677.056455,112.495468 C677.068517,112.502011 677.145724,112.548742 677.238675,112.606152 C677.371503,112.688194 677.466599,112.743666 677.533498,112.777115 C677.602411,112.811572 677.690394,112.848053 677.801842,112.88933 C677.948705,112.943724 678.083695,112.973722 678.215199,112.973722 C678.513621,112.973722 678.776954,112.81057 679.061924,112.52051 C679.276796,112.301801 679.479689,112.064454 679.670603,111.808631 C679.831255,111.593357 680.007728,111.394423 680.200199,111.211576 C680.328784,111.08942 680.405916,111.045455 680.388494,111.045455 C680.409742,111.045455 680.437278,111.052218 680.474741,111.070304 C680.551392,111.107308 680.65657,111.171007 680.786217,111.260525 C680.928095,111.358489 681.015931,111.419974 681.036649,111.435512 C681.261206,111.573342 681.455341,111.685831 681.661838,111.801759 C681.866408,111.916606 682.093955,112.042026 682.34455,112.178063 C682.589444,112.311005 682.777575,112.415522 682.907862,112.490952 C683.292059,112.684095 683.512688,112.837955 683.493697,112.780983 C683.498114,112.795672 683.5,112.808877 683.5,112.846591 L683.5,112.846591 Z M684.5,112.846591 C684.5,112.68544 684.48058,112.549498 684.42761,112.425906 C684.338164,112.152103 684.01902,111.929541 683.381987,111.611025 C683.269289,111.544699 683.073888,111.436143 682.821642,111.29921 C682.575029,111.165334 682.351591,111.042179 682.151373,110.929776 C681.95304,110.818431 681.767203,110.71075 681.593896,110.606765 C681.600549,110.608438 681.510842,110.545643 681.354408,110.437629 C681.185758,110.32118 681.038805,110.23218 680.909491,110.169753 C680.740991,110.088407 680.566111,110.045455 680.388494,110.045455 C680.086981,110.045455 679.808999,110.203905 679.511449,110.486577 C679.277784,110.708559 679.063633,110.949966 678.86917,111.210546 C678.704969,111.430575 678.531442,111.633569 678.348587,111.819688 C678.23583,111.934459 678.172459,111.973722 678.215199,111.973722 C678.218861,111.973722 678.19405,111.968208 678.149156,111.951581 C678.06884,111.921835 678.011226,111.897946 677.980711,111.882688 C677.948173,111.866419 677.872812,111.822459 677.764168,111.755354 C677.615647,111.663622 677.557904,111.628672 677.522621,111.611029 C676.608079,111.103169 675.811025,110.513009 675.149008,109.850992 C674.486991,109.188976 673.896832,108.391921 673.37899,107.458444 C673.371336,107.442107 673.336407,107.384398 673.244646,107.235833 C673.17754,107.127185 673.13358,107.051824 673.117312,107.019289 C673.102056,106.988777 673.078166,106.93116 673.048419,106.850844 C673.031792,106.805952 673.026279,106.78114 673.026279,106.784801 C673.026279,106.827541 673.065541,106.764169 673.180311,106.651412 C673.366432,106.468557 673.569427,106.29503 673.789454,106.130831 C674.050033,105.936368 674.29144,105.722217 674.513423,105.488551 C674.796096,105.191 674.954546,104.913018 674.954546,104.611506 C674.954546,104.433889 674.911593,104.25901 674.830247,104.090509 C674.76782,103.961194 674.67882,103.814241 674.562371,103.645592 C674.454392,103.489207 674.391568,103.399459 674.364489,103.363354 C674.28925,103.232795 674.181568,103.046958 674.070225,102.848627 C673.957804,102.648378 673.834645,102.424933 673.700791,102.178358 C673.563851,101.926101 673.455297,101.730705 673.374474,101.591101 C673.070458,100.98098 672.847898,100.661836 672.535245,100.557618 C672.450499,100.51942 672.314558,100.5 672.153409,100.5 C671.918336,100.5 671.632936,100.540482 671.290322,100.619245 C670.953261,100.69673 670.681722,100.779975 670.471216,100.872598 C669.994757,101.072633 669.553498,101.580498 669.106041,102.387518 C668.703346,103.129697 668.5,103.87131 668.5,104.611506 C668.5,104.825745 668.513943,105.034885 668.541931,105.2388 C668.570134,105.444278 668.619328,105.670571 668.689129,105.918753 C668.755816,106.155863 668.81014,106.333821 668.853715,106.456623 C668.89406,106.570321 668.967638,106.76952 669.07516,107.056244 C669.179018,107.333201 669.242253,107.50534 669.260743,107.560812 C669.524439,108.299497 669.834484,108.953205 670.19501,109.531549 C670.776698,110.474041 671.566165,111.443016 672.561575,112.438426 C673.556982,113.433833 674.525958,114.223301 675.470349,114.806169 C676.046794,115.165517 676.700503,115.475561 677.429133,115.735786 C677.49467,115.757751 677.666842,115.820998 677.943756,115.924841 C678.230485,116.032365 678.429681,116.105941 678.543377,116.146285 C678.666182,116.189861 678.844141,116.244185 679.081247,116.310871 C679.329421,116.380671 679.555716,116.429865 679.761199,116.458069 C679.965116,116.486058 680.174256,116.5 680.388494,116.5 C681.128689,116.5 681.870303,116.296655 682.608471,115.896159 C683.419501,115.446503 683.927366,115.005243 684.130735,114.521031 C684.220025,114.318277 684.303271,114.046737 684.380756,113.709677 C684.459518,113.367061 684.5,113.081662 684.5,112.846591 L684.5,112.846591 Z" id="Shape" sketch:type="MSShapeGroup"></path>
        </g>
    </g>
</svg>