<?xml version="1.0" encoding="UTF-8" standalone="no"?>
<svg width="123px" height="123px" viewBox="0 0 123 123" version="1.1" xmlns="http://www.w3.org/2000/svg" xmlns:xlink="http://www.w3.org/1999/xlink" xmlns:sketch="http://www.bohemiancoding.com/sketch/ns">
    <!-- Generator: bin/sketchtool 1.4 (305) - http://www.bohemiancoding.com/sketch -->
    <title>plus-g</title>
    <desc>Created with bin/sketchtool.</desc>
    <defs></defs>
    <g id="UI-kit" stroke="none" stroke-width="1" fill="none" fill-rule="evenodd" sketch:type="MSPage">
        <g id="market-UI-kit" sketch:type="MSArtboardGroup" transform="translate(-54.000000, -372.000000)">
            <g id="plus-g" sketch:type="MSLayerGroup" transform="translate(54.000000, 372.000000)">
                <path d="M61.4365672,122.873134 C95.3670463,122.873134 122.873134,95.3670463 122.873134,61.4365672 C122.873134,27.506088 95.3670463,0 61.4365672,0 C27.506088,0 0,27.506088 0,61.4365672 C0,95.3670463 27.506088,122.873134 61.4365672,122.873134 L61.4365672,122.873134 Z M61.4365672,120 C29.0928763,120 2.87313433,93.780258 2.87313433,61.4365672 C2.87313433,29.0928763 29.0928763,2.87313433 61.4365672,2.87313433 C93.780258,2.87313433 120,29.0928763 120,61.4365672 C120,93.780258 93.780258,120 61.4365672,120 L61.4365672,120 Z" id="Shape" fill="#CECECE" sketch:type="MSShapeGroup"></path>
                <path d="M63,59 L63,37.9909141 C63,36.8890643 62.1045695,36 61,36 C59.8877296,36 59,36.8913626 59,37.9909141 L59,59 L37.9909141,59 C36.8890643,59 36,59.8954305 36,61 C36,62.1122704 36.8913626,63 37.9909141,63 L59,63 L59,84.0090859 C59,85.1109357 59.8954305,86 61,86 C62.1122704,86 63,85.1086374 63,84.0090859 L63,63 L84.0090859,63 C85.1109357,63 86,62.1045695 86,61 C86,59.8877296 85.1086374,59 84.0090859,59 L63,59 Z" id="Rectangle-311" fill="#E7E7E7" sketch:type="MSShapeGroup"></path>
            </g>
        </g>
    </g>
</svg>