<?xml version="1.0" encoding="UTF-8" standalone="no"?>
<svg width="16px" height="11px" viewBox="0 0 16 11" version="1.1" xmlns="http://www.w3.org/2000/svg" xmlns:xlink="http://www.w3.org/1999/xlink" xmlns:sketch="http://www.bohemiancoding.com/sketch/ns">
    <!-- Generator: bin/sketchtool 1.4 (305) - http://www.bohemiancoding.com/sketch -->
    <title>st g</title>
    <desc>Created with bin/sketchtool.</desc>
    <defs></defs>
    <g id="UI-kit" stroke="none" stroke-width="1" fill="none" fill-rule="evenodd" sketch:type="MSPage">
        <g id="market-UI-kit" sketch:type="MSArtboardGroup" transform="translate(-594.000000, -45.000000)" fill="#E7E7E7">
            <path d="M599.983331,54.0359614 C601.061567,55.4222649 602.938322,55.4224078 604.016669,54.0359614 L608.562035,48.1919198 C609.752098,46.6618386 608.932905,45 606.994141,45 L597.005859,45 C595.067904,45 594.247802,46.6617101 595.437965,48.1919198 L599.983331,54.0359614 L599.983331,54.0359614 Z M601.562035,52.8080802 L597.016669,46.9640386 C596.932557,46.8558942 596.8899,46.7734988 596.879484,46.7301244 C596.886761,46.760425 596.881251,46.8284198 596.843633,46.9046436 C596.806455,46.9799741 596.757331,47.0244646 596.73093,47.0363122 C596.773589,47.0171683 596.86692,47 597.005859,47 L606.994141,47 C607.133312,47 607.226758,47.0171857 607.269427,47.0363357 C607.242912,47.0244354 607.193665,46.979812 607.156453,46.9043227 C607.118854,46.8280496 607.113384,46.7601032 607.12065,46.7298938 C607.110192,46.7733731 607.067475,46.8558526 606.983331,46.9640386 L602.437965,52.8080802 C602.16038,53.1649756 601.839601,53.1649512 601.562035,52.8080802 L601.562035,52.8080802 Z" id="st-copy" sketch:type="MSShapeGroup"></path>
        </g>
    </g>
</svg>