<?xml version="1.0" encoding="UTF-8" standalone="no"?>
<svg width="10px" height="7px" viewBox="0 0 10 7" version="1.1" xmlns="http://www.w3.org/2000/svg" xmlns:xlink="http://www.w3.org/1999/xlink" xmlns:sketch="http://www.bohemiancoding.com/sketch/ns">
    <!-- Generator: bin/sketchtool 1.4 (305) - http://www.bohemiancoding.com/sketch -->
    <title>st mal</title>
    <desc>Created with bin/sketchtool.</desc>
    <defs></defs>
    <g id="UI-kit" stroke="none" stroke-width="1" fill="none" fill-rule="evenodd" sketch:type="MSPage">
        <g id="market-UI-kit" sketch:type="MSArtboardGroup" transform="translate(-442.000000, -127.000000)" fill="#E7E7E7">
            <path d="M445.58303,133.277625 C446.340607,134.240742 447.659228,134.240841 448.416883,133.277625 L451.610489,129.217548 C452.446635,128.154542 451.871064,127 450.508875,127 L443.491038,127 C442.129417,127 441.553208,128.154453 442.389425,129.217548 L445.58303,133.277625 L445.58303,133.277625 Z M446.692239,132.424569 L443.498633,128.364492 C443.439536,128.28936 443.409565,128.232117 443.402246,128.201983 C443.407359,128.223034 443.403488,128.270273 443.377057,128.323228 C443.350935,128.375563 443.31642,128.406472 443.297871,128.414703 C443.327844,128.401403 443.393419,128.389476 443.491038,128.389476 L450.508875,128.389476 C450.606658,128.389476 450.672314,128.401415 450.702293,128.41472 C450.683663,128.406452 450.649062,128.37545 450.622917,128.323005 C450.5965,128.270015 450.592656,128.22281 450.597762,128.201823 C450.590413,128.232029 450.5604,128.289331 450.50128,128.364492 L447.307674,132.424569 C447.11264,132.672518 446.887259,132.672501 446.692239,132.424569 L446.692239,132.424569 Z" id="st-mal" sketch:type="MSShapeGroup"></path>
        </g>
    </g>
</svg>