<?xml version="1.0" encoding="UTF-8" standalone="no"?>
<svg width="16px" height="11px" viewBox="0 0 16 11" version="1.1" xmlns="http://www.w3.org/2000/svg" xmlns:xlink="http://www.w3.org/1999/xlink" xmlns:sketch="http://www.bohemiancoding.com/sketch/ns">
    <!-- Generator: bin/sketchtool 1.4 (305) - http://www.bohemiancoding.com/sketch -->
    <title>st</title>
    <desc>Created with bin/sketchtool.</desc>
    <defs></defs>
    <g id="UI-kit" stroke="none" stroke-width="1" fill="none" fill-rule="evenodd" sketch:type="MSPage">
        <g id="market-UI-kit" sketch:type="MSArtboardGroup" transform="translate(-575.000000, -45.000000)" fill="#FC9E3F">
            <path d="M580.983331,54.0359614 C582.061567,55.4222649 583.938322,55.4224078 585.016669,54.0359614 L589.562035,48.1919198 C590.752098,46.6618386 589.932905,45 587.994141,45 L578.005859,45 C576.067904,45 575.247802,46.6617101 576.437965,48.1919198 L580.983331,54.0359614 L580.983331,54.0359614 Z M582.562035,52.8080802 L578.016669,46.9640386 C577.932557,46.8558942 577.8899,46.7734988 577.879484,46.7301244 C577.886761,46.760425 577.881251,46.8284198 577.843633,46.9046436 C577.806455,46.9799741 577.757331,47.0244646 577.73093,47.0363122 C577.773589,47.0171683 577.86692,47 578.005859,47 L587.994141,47 C588.133312,47 588.226758,47.0171857 588.269427,47.0363357 C588.242912,47.0244354 588.193665,46.979812 588.156453,46.9043227 C588.118854,46.8280496 588.113384,46.7601032 588.12065,46.7298938 C588.110192,46.7733731 588.067475,46.8558526 587.983331,46.9640386 L583.437965,52.8080802 C583.16038,53.1649756 582.839601,53.1649512 582.562035,52.8080802 L582.562035,52.8080802 Z" id="st" sketch:type="MSShapeGroup"></path>
        </g>
    </g>
</svg>