<?xml version="1.0" encoding="UTF-8" standalone="no"?>
<svg width="35px" height="35px" viewBox="0 0 35 35" version="1.1" xmlns="http://www.w3.org/2000/svg" xmlns:xlink="http://www.w3.org/1999/xlink" xmlns:sketch="http://www.bohemiancoding.com/sketch/ns">
    <!-- Generator: bin/sketchtool 1.4 (305) - http://www.bohemiancoding.com/sketch -->
    <title>logo_small</title>
    <desc>Created with bin/sketchtool.</desc>
    <defs></defs>
    <g id="UI-kit" stroke="none" stroke-width="1" fill="none" fill-rule="evenodd" sketch:type="MSPage">
        <g id="market-UI-kit" sketch:type="MSArtboardGroup" transform="translate(-221.000000, -132.000000)">
            <g id="logo_small" sketch:type="MSLayerGroup" transform="translate(221.000000, 132.000000)">
                <g id="Group" sketch:type="MSShapeGroup">
                    <path d="M16.7294464,25.5512463 L16.974173,24.7305523 L14.2622338,26.7235538 L13.4416495,27.3266004 L14.2911448,27.8881887 L15.2314749,28.5098266 C15.5586473,28.7261153 15.9992095,28.6362263 16.2154982,28.3090539 C16.4317869,27.9818815 16.3418979,27.5413192 16.0147255,27.3250305 L15.0743954,26.7033926 L15.1033064,27.8680275 L17.8152457,25.875026 L18.247767,25.5571665 L18.0599723,25.0543319 L17.2843939,22.9776619 C17.2843939,22.9776619 15.8166488,23.1071617 15.9538679,23.4745763 L16.7294464,25.5512463 Z" id="Shape" fill="#9B4D03"></path>
                    <path d="M17.5,34.6956522 C26.9968965,34.6956522 34.6956522,26.9968965 34.6956522,17.5 C34.6956522,8.00310354 26.9968965,0.304347826 17.5,0.304347826 C8.00310354,0.304347826 0.304347826,8.00310354 0.304347826,17.5 C0.304347826,26.9968965 8.00310354,34.6956522 17.5,34.6956522 L17.5,34.6956522 Z M17.5,33.2753623 C8.78750797,33.2753623 1.72463768,26.212492 1.72463768,17.5 C1.72463768,8.78750797 8.78750797,1.72463768 17.5,1.72463768 C26.212492,1.72463768 33.2753623,8.78750797 33.2753623,17.5 C33.2753623,26.212492 26.212492,33.2753623 17.5,33.2753623 L17.5,33.2753623 Z" id="Shape" fill="#EF4407"></path>
                    <g id="groceries" transform="translate(12.566381, 5.346451)" fill="#FC9E3F">
                        <path d="M0.669434139,1.03840099 C0.555971507,0.838960749 0.625404552,0.585110921 0.824482832,0.471441993 C1.26533195,0.219809194 1.65034879,0.167801387 1.96865274,0.31671184 C2.34523249,0.49296565 2.51784692,0.882793261 2.62849719,1.32818516 C3.21996899,1.02163471 3.87220623,0.839099313 4.54311571,0.795082049 C5.27156333,0.747277359 5.98212248,0.85942208 6.65556769,1.12828304 C6.86843115,1.21331534 6.97221189,1.45506389 6.88738001,1.66831437 C6.80250203,1.88156486 6.56119223,1.98562666 6.34828267,1.90054817 C5.79046699,1.67778293 5.20139261,1.58499103 4.59738045,1.62462042 C3.9591589,1.66651304 3.34159208,1.85934838 2.79737716,2.18502071 C2.85385491,2.47092508 2.92480939,2.7539196 3.02711479,2.87202259 C3.17732253,3.04541274 3.15883471,3.30794593 2.98580535,3.45842678 C2.90728977,3.52673899 2.81037857,3.56022536 2.71397452,3.56022536 C2.59788395,3.56022536 2.48248493,3.51172785 2.40046542,3.41704224 C2.11526435,3.0879058 2.02084278,2.56413268 1.9295102,2.05758773 C1.87160323,1.73634945 1.76381142,1.13839824 1.61738423,1.06985509 C1.58598722,1.05502871 1.46570115,1.06214167 1.23536417,1.19363921 C1.0363781,1.30753908 0.782896771,1.23784123 0.669434139,1.03840099 L0.669434139,1.03840099 Z M5.59761279,3.35713626 C5.75851673,3.35713626 5.91162904,3.26282015 5.9790796,3.1053649 C6.06949009,2.89442382 5.97207175,2.64995018 5.7614674,2.5593753 C5.27847897,2.35171358 4.7531207,2.30441696 4.24210087,2.42275089 C4.01881784,2.47443538 3.87967513,2.69770868 3.93131192,2.92139768 C3.98294871,3.14508667 4.20590901,3.28466713 4.42905372,3.23275169 C4.76685978,3.15446286 5.11439384,3.18582458 5.43412702,3.32337276 C5.48746967,3.34632825 5.54297922,3.35713626 5.59761279,3.35713626 L5.59761279,3.35713626 Z M6.42850412,4.39054894 L6.5360193,5.59855265 C6.53638813,5.60414141 6.53689528,5.60968398 6.53749463,5.61518037 L6.5888548,6.19202362 C6.60808029,6.40813776 6.7891779,6.57081227 7.00167252,6.57081227 C7.01402847,6.57081227 7.02647662,6.57021182 7.03901699,6.5691495 C7.26727928,6.54878054 7.43579042,6.34684615 7.41545843,6.11812265 L7.40360963,5.98514709 L7.87714669,5.98514709 C8.10633106,5.98514709 8.2920852,5.79905521 8.2920852,5.56945414 C8.2920852,5.33985307 8.10633106,5.15376119 7.87714669,5.15376119 L7.32961226,5.15376119 L7.25510775,4.31664797 C7.22490944,3.97693445 7.38950172,3.71841962 7.53293213,3.56133388 C7.81449097,3.25298208 8.24925433,3.06892248 8.69586648,3.06892248 L9.73911412,3.06892248 C10.1857263,3.06892248 10.6204435,3.25298208 10.9020024,3.56128769 C11.0249164,3.69587983 11.1634136,3.90506576 11.1814404,4.17609756 L10.6446944,4.17609756 C10.41551,4.17609756 10.2297559,4.36218944 10.2297559,4.59179051 C10.2297559,4.82139158 10.41551,5.00748346 10.6446944,5.00748346 L11.1183236,5.00748346 L11.0194761,6.11816884 C10.9991441,6.34679996 11.1676552,6.54873436 11.3959175,6.5691495 C11.624272,6.58877944 11.8257477,6.42070093 11.8460797,6.19197743 L12.0063843,4.39045656 C12.0508749,3.89010081 11.8760936,3.39639615 11.5142672,3.00010221 C11.0782129,2.52260957 10.4145879,2.23753658 9.73911412,2.23753658 L9.72477569,2.23753658 C9.90094014,1.62138726 10.2578795,1.10731364 10.7264373,0.814619617 C10.9209051,0.6931449 10.9802413,0.436708538 10.8589871,0.241979485 C10.7377789,0.0470656795 10.4818541,-0.0123784123 10.2873401,0.109188681 C9.8465832,0.384515979 9.47963924,0.794943484 9.2174903,1.28818626 C8.95529526,0.794897296 8.5883513,0.384515979 8.14759439,0.109188681 C7.95308043,-0.0122860361 7.69720168,0.0471580558 7.57594743,0.241979485 C7.45469317,0.436754726 7.51402938,0.693191088 7.70849723,0.814619617 C8.17705502,1.10731364 8.53399436,1.62138726 8.71011271,2.23753658 L8.69586648,2.23753658 C8.02034658,2.23753658 7.35672158,2.52265576 6.9206212,3.00019458 C6.55879481,3.39644234 6.38401349,3.89019319 6.42850412,4.39054894 L6.42850412,4.39054894 Z M4.38705272,4.07319046 C4.19419852,3.94912921 3.937536,4.00524776 3.8136999,4.19854498 C3.68995602,4.39174983 3.74597272,4.64887901 3.93882692,4.77289407 C4.2317274,4.96120298 4.45233638,5.23200384 4.57686404,5.55605959 C4.64030353,5.72118207 4.79751912,5.82256496 4.96418609,5.82256496 C5.01374819,5.82256496 5.06414017,5.81360447 5.11314902,5.79466734 C5.32702677,5.71217539 5.43366597,5.47162773 5.35132373,5.25736111 C5.16294164,4.76712056 4.82951549,4.35761682 4.38705272,4.07319046 L4.38705272,4.07319046 Z M0.430014616,6.354421 C0.439143263,6.354421 0.448318015,6.35414387 0.45753887,6.35349723 C0.686216097,6.33853229 0.859429875,6.14066244 0.844445985,5.91156944 C0.788106555,5.04937607 1.00244535,4.20986107 1.46431802,3.48378405 C1.58746255,3.2902097 1.53066208,3.03321908 1.33739294,2.90980446 C1.14421601,2.78648222 0.887691799,2.84338596 0.76445506,3.03696032 C0.20705432,3.91319487 -0.0516828974,4.92596146 0.016320915,5.96584046 C0.0307515545,6.18574203 0.213186189,6.354421 0.430014616,6.354421 L0.430014616,6.354421 Z M12.0072142,7.38861887 L12.0072142,17.8604785 C12.0072142,18.0900796 11.82146,18.2761715 11.5922756,18.2761715 L0.42683342,18.2761715 C0.197649047,18.2761715 0.0118949041,18.0900796 0.0118949041,17.8604785 L0.0118949041,7.38861887 C0.0118949041,7.15901779 0.197649047,6.97292592 0.42683342,6.97292592 L0.554772796,6.97292592 C0.700600632,6.97292592 0.835686172,7.04959817 0.91065173,7.1749065 C1.00392069,7.33079136 1.17598186,7.42764782 1.35970741,7.42764782 C1.54343297,7.42764782 1.71549414,7.33079136 1.8088092,7.1749065 C1.88377476,7.04959817 2.0189064,6.97292592 2.16468813,6.97292592 L2.41070057,6.97292592 C2.55652841,6.97292592 2.69166005,7.04959817 2.76662561,7.17495269 C2.85984846,7.33079136 3.03190963,7.42764782 3.21563519,7.42764782 C3.39936074,7.42764782 3.57146802,7.33074517 3.66482918,7.17481413 C3.73979474,7.04955198 3.87488028,6.97292592 4.02066201,6.97292592 L4.27658687,6.97292592 C4.42241471,6.97292592 4.55750024,7.04959817 4.6324658,7.1749065 C4.72573476,7.33079136 4.89779593,7.42764782 5.08147538,7.42764782 C5.26520094,7.42764782 5.43730821,7.33079136 5.53062327,7.1749065 C5.60558883,7.04959817 5.74072048,6.97292592 5.88650221,6.97292592 L6.13246854,6.97292592 C6.27829637,6.97292592 6.41342802,7.04959817 6.48839358,7.1749065 C6.58166253,7.33079136 6.75372371,7.42764782 6.93740316,7.42764782 C7.12117481,7.42764782 7.29323599,7.33079136 7.38650494,7.1749065 C7.4614705,7.04959817 7.59660214,6.97292592 7.74242998,6.97292592 L7.99835484,6.97292592 C8.14413657,6.97292592 8.27922211,7.04955198 8.35423377,7.17486031 C8.44754883,7.33079136 8.61965611,7.42764782 8.80338166,7.42764782 C8.98710722,7.42764782 9.15916839,7.33079136 9.25239124,7.17495269 C9.3273568,7.04959817 9.46248844,6.97292592 9.60831628,6.97292592 L9.85437482,6.97292592 C10.0002027,6.97292592 10.1353343,7.04959817 10.2102999,7.1749065 C10.3035688,7.33079136 10.4755839,7.42764782 10.6593094,7.42764782 C10.843035,7.42764782 11.0151423,7.33079136 11.1084573,7.17486031 C11.1834229,7.04959817 11.3185084,6.97292592 11.4643363,6.97292592 L11.5922756,6.97292592 C11.82146,6.97292592 12.0072142,7.15901779 12.0072142,7.38861887 L12.0072142,7.38861887 Z M11.1773371,8.15538761 C11.0151884,8.22268368 10.8393005,8.25903371 10.6593094,8.25903371 C10.3115449,8.25903371 9.97931742,8.12337925 9.7313686,7.8909607 C9.48341979,8.12337925 9.15123845,8.25903371 8.80338166,8.25903371 C8.45331187,8.25903371 8.11896363,8.12153172 7.87046157,7.8862957 C7.6220056,8.1216241 7.28765737,8.25903371 6.93754147,8.25903371 C6.58973078,8.25903371 6.25750334,8.12337925 6.00955453,7.8909607 C5.76160571,8.12337925 5.42942438,8.25903371 5.0816598,8.25903371 C4.7315439,8.25903371 4.39714956,8.12153172 4.1486936,7.8862957 C3.90019153,8.12157791 3.56584329,8.25903371 3.2157735,8.25903371 C2.86796282,8.25903371 2.53573538,8.12337925 2.28778656,7.8909607 C2.03983775,8.12333306 1.70761031,8.25903371 1.35984573,8.25903371 C1.17985462,8.25903371 1.00396679,8.22268368 0.841818041,8.15543379 L0.841818041,17.4447856 L11.1773832,17.4447856 L11.1773832,8.15538761 L11.1773371,8.15538761 Z M2.70258676,4.12981708 C2.48359144,4.06192057 2.25122587,4.1845038 2.18336037,4.40380492 C2.02803505,4.9055925 2.03651824,5.43403062 2.20793395,5.93189221 C2.26722405,6.10408146 2.42803578,6.21216163 2.60018916,6.21216163 C2.64504862,6.21216163 2.69069186,6.20481772 2.73550522,6.18929852 C2.95214923,6.11447379 3.06717941,5.87785212 2.99249047,5.66081421 C2.87902784,5.33126208 2.87335702,4.98175669 2.97603125,4.64998752 C3.04385064,4.43073259 2.92144378,4.19785216 2.70258676,4.12981708 L2.70258676,4.12981708 Z" id="XMLID_222_"></path>
                    </g>
                    <path d="M19.1116332,21.6618174 L21.2686814,24.9508575 L21.1544406,24.6156459 L21.4063861,27.9046861 L21.4804816,28.8719706 L22.3801452,28.5090175 L23.7771265,27.9454305 C24.1408451,27.7986948 24.3167444,27.3848898 24.1700087,27.0211713 C24.023273,26.6574527 23.609468,26.4815533 23.2457494,26.628289 L21.8487681,27.191876 L22.8225272,27.7962075 L22.5705818,24.5071674 L22.5566163,24.3248543 L22.456341,24.1719558 L20.2992929,20.8829157 C20.0842051,20.5549525 19.6439753,20.4634489 19.3160122,20.6785367 C18.988049,20.8936245 18.8965455,21.3338542 19.1116332,21.6618174 L19.1116332,21.6618174 Z" id="Shape" fill="#9B4D03"></path>
                    <path d="M10.2060373,14.2628795 L4.10923135,14.2628795 C3.71702914,14.2628795 3.39908642,14.5808222 3.39908642,14.9730244 C3.39908642,15.3652267 3.71702914,15.6831694 4.10923135,15.6831694 L10.2060373,15.6831694 C10.5982395,15.6831694 10.9161823,15.3652267 10.9161823,14.9730244 C10.9161823,14.5808222 10.5982395,14.2628795 10.2060373,14.2628795 L10.2060373,14.2628795 Z" id="Shape" fill="#EF4407"></path>
                    <path d="M10.2060373,16.4288586 L5.70744737,16.4288586 C5.31524515,16.4288586 4.99730244,16.7468013 4.99730244,17.1390035 C4.99730244,17.5312057 5.31524515,17.8491484 5.70744737,17.8491484 L10.2060373,17.8491484 C10.5982395,17.8491484 10.9161823,17.5312057 10.9161823,17.1390035 C10.9161823,16.7468013 10.5982395,16.4288586 10.2060373,16.4288586 L10.2060373,16.4288586 Z" id="Shape" fill="#FFB13D"></path>
                    <path d="M10.2060373,18.835502 L6.91076907,18.835502 C6.51856686,18.835502 6.20062414,19.1534447 6.20062414,19.5456469 C6.20062414,19.9378491 6.51856686,20.2557918 6.91076907,20.2557918 L10.2060373,20.2557918 C10.5982395,20.2557918 10.9161823,19.9378491 10.9161823,19.5456469 C10.9161823,19.1534447 10.5982395,18.835502 10.2060373,18.835502 L10.2060373,18.835502 Z" id="Shape" fill="#AD7952"></path>
                </g>
                <path d="M9.13043478,10.1702899 C9.98487532,10.1702899 10.6775362,9.47762894 10.6775362,8.62318841 C10.6775362,7.76874787 9.98487532,7.07608696 9.13043478,7.07608696 C8.27599425,7.07608696 7.58333333,7.76874787 7.58333333,8.62318841 C7.58333333,9.47762894 8.27599425,10.1702899 9.13043478,10.1702899 L9.13043478,10.1702899 Z M9.13043478,9.10507246 C8.86429757,9.10507246 8.64855072,8.88932562 8.64855072,8.62318841 C8.64855072,8.35705119 8.86429757,8.14130435 9.13043478,8.14130435 C9.396572,8.14130435 9.61231884,8.35705119 9.61231884,8.62318841 C9.61231884,8.88932562 9.396572,9.10507246 9.13043478,9.10507246 L9.13043478,9.10507246 Z" id="Shape" fill="#FFB13D" sketch:type="MSShapeGroup"></path>
                <path d="M27.3913043,11.1847826 C27.9656004,11.1847826 28.4311594,10.7192236 28.4311594,10.1449275 C28.4311594,9.57063144 27.9656004,9.10507246 27.3913043,9.10507246 C26.8170082,9.10507246 26.3514493,9.57063144 26.3514493,10.1449275 C26.3514493,10.7192236 26.8170082,11.1847826 27.3913043,11.1847826 L27.3913043,11.1847826 Z M27.3913043,10.1195652 C27.4053116,10.1195652 27.4166667,10.1309203 27.4166667,10.1449275 C27.4166667,10.1589348 27.4053116,10.1702899 27.3913043,10.1702899 C27.3772971,10.1702899 27.365942,10.1589348 27.365942,10.1449275 C27.365942,10.1309203 27.3772971,10.1195652 27.3913043,10.1195652 L27.3913043,10.1195652 Z" id="Shape" fill="#BB9A6F" sketch:type="MSShapeGroup"></path>
                <path d="M27.1376812,16.2572464 C27.571905,16.2572464 27.923913,15.9052384 27.923913,15.4710145 C27.923913,15.0367906 27.571905,14.6847826 27.1376812,14.6847826 C26.7034573,14.6847826 26.3514493,15.0367906 26.3514493,15.4710145 C26.3514493,15.9052384 26.7034573,16.2572464 27.1376812,16.2572464 L27.1376812,16.2572464 Z M27.1376812,15.192029 C27.2917606,15.192029 27.4166667,15.3169351 27.4166667,15.4710145 C27.4166667,15.6250939 27.2917606,15.75 27.1376812,15.75 C26.9836017,15.75 26.8586957,15.6250939 26.8586957,15.4710145 C26.8586957,15.3169351 26.9836017,15.192029 27.1376812,15.192029 L27.1376812,15.192029 Z" id="Shape" fill="#F75D21" sketch:type="MSShapeGroup"></path>
            </g>
        </g>
    </g>
</svg>