<?xml version="1.0" encoding="UTF-8" standalone="no"?>
<svg width="203px" height="69px" viewBox="0 0 203 69" version="1.1" xmlns="http://www.w3.org/2000/svg" xmlns:xlink="http://www.w3.org/1999/xlink" xmlns:sketch="http://www.bohemiancoding.com/sketch/ns">
    <!-- Generator: bin/sketchtool 1.4 (305) - http://www.bohemiancoding.com/sketch -->
    <title>logo</title>
    <desc>Created with bin/sketchtool.</desc>
    <defs></defs>
    <g id="UI-kit" stroke="none" stroke-width="1" fill="none" fill-rule="evenodd" sketch:type="MSPage">
        <g id="market-UI-kit" sketch:type="MSArtboardGroup" transform="translate(-30.000000, -25.000000)">
            <g id="logo" sketch:type="MSLayerGroup" transform="translate(30.000000, 25.000000)">
                <g id="Group" sketch:type="MSShapeGroup">
                    <g>
                        <path d="M32.9809086,50.3724571 L33.4633697,48.7545173 L28.1169751,52.6835775 L26.4992519,53.8724408 L28.1739711,54.9795721 L30.0277648,56.2050867 C30.6727618,56.6314844 31.5412988,56.4542746 31.9676965,55.8092776 C32.3940942,55.1642806 32.2168844,54.2957436 31.5718874,53.8693459 L29.7180938,52.6438312 L29.7750898,54.9398257 L35.1214843,51.0107655 L35.9741693,50.3841282 L35.6039455,49.3928258 L34.074948,45.2988192 C34.074948,45.2988192 31.1813934,45.5541188 31.4519111,46.2784504 L32.9809086,50.3724571 Z" id="Shape" fill="#9B4D03"></path>
                        <path d="M34.5,68.4 C53.222453,68.4 68.4,53.222453 68.4,34.5 C68.4,15.777547 53.222453,0.6 34.5,0.6 C15.777547,0.6 0.6,15.777547 0.6,34.5 C0.6,53.222453 15.777547,68.4 34.5,68.4 L34.5,68.4 Z M34.5,65.6 C17.3239443,65.6 3.4,51.6760557 3.4,34.5 C3.4,17.3239443 17.3239443,3.4 34.5,3.4 C51.6760557,3.4 65.6,17.3239443 65.6,34.5 C65.6,51.6760557 51.6760557,65.6 34.5,65.6 L34.5,65.6 Z" id="Shape" fill="#EF4407"></path>
                        <g id="groceries" transform="translate(24.773723, 10.540146)" fill="#FC9E3F">
                            <path d="M1.31974159,2.04713338 C1.09605811,1.65395119 1.2329404,1.15350439 1.62540901,0.929414215 C2.49451156,0.433338126 3.25354476,0.330808449 3.88105825,0.62437477 C4.62345834,0.971846568 4.96375535,1.74036386 5.18189445,2.61842218 C6.34793887,2.01407985 7.633778,1.65422436 8.95642811,1.56744747 C10.3925106,1.47320394 11.7933272,1.69428924 13.1209763,2.22432943 C13.5406214,2.39196454 13.7452177,2.86855452 13.5779777,3.28896262 C13.4106469,3.70937071 12.9349218,3.91452112 12.5151858,3.74679496 C11.4154921,3.30762921 10.254174,3.1246966 9.06340717,3.20282312 C7.80519898,3.28541141 6.5877101,3.66557251 5.51482926,4.30761225 C5.6261711,4.8712523 5.7660528,5.42915579 5.96774058,5.66198739 C6.26386442,6.00381368 6.22741701,6.52137912 5.88630198,6.81804136 C5.73151411,6.952714 5.54046061,7.01873 5.35040691,7.01873 C5.12154264,7.01873 4.89404173,6.92312062 4.73234611,6.73645469 C4.17009257,6.08758571 3.9839472,5.05500442 3.80389155,4.05638723 C3.68973208,3.42308892 3.47722824,2.24427081 3.18855749,2.10914289 C3.12666051,2.07991374 2.88952513,2.09393644 2.43543222,2.35317445 C2.0431454,2.5777199 1.54342506,2.44031556 1.31974159,2.04713338 L1.31974159,2.04713338 Z M11.0352938,6.61835435 C11.3525044,6.61835435 11.6543544,6.43241687 11.7873284,6.12200509 C11.9655662,5.70614982 11.7735129,5.2241875 11.3583214,5.0456256 C10.4061443,4.63623535 9.37043796,4.54299344 8.36299885,4.77628032 C7.92281232,4.8781726 7.64850239,5.31833997 7.75030064,5.75932685 C7.85209889,6.20031372 8.29164919,6.47548662 8.73156305,6.37313905 C9.39752356,6.2187982 10.0826621,6.2806256 10.7129933,6.55179201 C10.8181545,6.59704711 10.9275876,6.61835435 11.0352938,6.61835435 L11.0352938,6.61835435 Z M12.6733367,8.65565362 L12.8852952,11.0371466 C12.8860223,11.0481645 12.8870221,11.0590913 12.8882037,11.069927 L12.9894566,12.2071323 C13.0273583,12.6331859 13.3843793,12.953887 13.8032973,12.953887 C13.8276561,12.953887 13.8521968,12.9527033 13.8769192,12.950609 C14.326922,12.9104531 14.6591297,12.5123538 14.6190466,12.0614418 L14.5956876,11.79929 L15.529232,11.79929 C15.9810527,11.79929 16.3472537,11.4324231 16.3472537,10.979781 C16.3472537,10.5271389 15.9810527,10.1602721 15.529232,10.1602721 L14.449807,10.1602721 L14.3029267,8.50996313 C14.2433929,7.8402422 14.5678748,7.33059869 14.8506376,7.02091536 C15.4057108,6.41302182 16.2628157,6.05016147 17.1432796,6.05016147 L19.1999678,6.05016147 C20.0804318,6.05016147 20.9374458,6.41302182 21.4925189,7.0208243 C21.7348351,7.28616309 22.0078726,7.69855821 22.0434111,8.23287805 L20.9852546,8.23287805 C20.533434,8.23287805 20.167233,8.59974489 20.167233,9.05238701 C20.167233,9.50502912 20.533434,9.87189597 20.9852546,9.87189597 L21.9189809,9.87189597 L21.72411,12.0615328 C21.6840269,12.5122628 22.0162346,12.910362 22.4662374,12.950609 C22.916422,12.989308 23.3136169,12.6579533 23.3537,12.2070412 L23.669729,8.6554715 C23.7574391,7.66905589 23.4128702,6.69575241 22.6995553,5.91448721 C21.8399055,4.97314458 20.5316162,4.41114355 19.1999678,4.41114355 L19.1717006,4.41114355 C19.5189963,3.19644916 20.2226767,2.18298975 21.1464049,1.60596439 C21.5297844,1.36648566 21.6467615,0.860939689 21.4077174,0.47704527 C21.1687642,0.0927866254 20.6642266,-0.0244031556 20.2807562,0.215257686 C19.4118354,0.758045786 18.6884316,1.5671743 18.1716237,2.5395672 C17.6547249,1.56708324 16.9313211,0.758045786 16.0624004,0.215257686 C15.67893,-0.0242210425 15.1744833,0.0929687385 14.9354392,0.47704527 C14.6963951,0.861030745 14.8133722,1.36657672 15.1967517,1.60596439 C16.1204799,2.18298975 16.8241603,3.19644916 17.171365,4.41114355 L17.1432796,4.41114355 C15.8115404,4.41114355 14.5032511,4.97323564 13.6435104,5.91466932 C12.9301955,6.69584347 12.5856266,7.669238 12.6733367,8.65565362 L12.6733367,8.65565362 Z M8.64876108,8.03000406 C8.2685628,7.78542616 7.76257097,7.89605987 7.51843695,8.27713153 C7.27448472,8.65802109 7.38491764,9.16493291 7.76511592,9.40941974 C8.34254831,9.7806573 8.77746315,10.3145219 9.02296054,10.9533746 C9.14802696,11.2789018 9.45796627,11.4787709 9.7865383,11.4787709 C9.88424644,11.4787709 9.98359063,11.461106 10.0802081,11.4237728 C10.5018528,11.2611458 10.7120843,10.7869232 10.5497525,10.3645119 C10.1783707,9.39803768 9.52104483,8.5907303 8.64876108,8.03000406 L8.64876108,8.03000406 Z M0.847743099,12.5272871 C0.865739575,12.5272871 0.883826943,12.5267408 0.902005202,12.525466 C1.35282602,12.4959637 1.69430461,12.1058774 1.66476494,11.6542369 C1.55369578,9.95448426 1.97624941,8.29944039 2.88679839,6.86803141 C3.12956904,6.4864134 3.01759096,5.97977475 2.63657466,5.73647165 C2.25574013,5.49335066 1.75002097,5.60553233 1.50706855,5.98715034 C0.408192801,7.71458416 -0.101889141,9.71118115 0.0321755181,11.7612283 C0.0606244931,12.1947486 0.420281344,12.5272871 0.847743099,12.5272871 L0.847743099,12.5272871 Z M23.671365,14.5661343 L23.671365,35.2106577 C23.671365,35.6632998 23.305164,36.0301666 22.8533434,36.0301666 L0.8414716,36.0301666 C0.389650977,36.0301666 0.0234499539,35.6632998 0.0234499539,35.2106577 L0.0234499539,14.5661343 C0.0234499539,14.1134922 0.389650977,13.7466254 0.8414716,13.7466254 L1.09369494,13.7466254 C1.3811841,13.7466254 1.6474956,13.8977793 1.79528484,14.1448157 C1.97915793,14.4521315 2.31836424,14.6430771 2.68056604,14.6430771 C3.04276785,14.6430771 3.38197416,14.4521315 3.56593814,14.1448157 C3.71372738,13.8977793 3.98012976,13.7466254 4.26752804,13.7466254 L4.75252398,13.7466254 C5.04001314,13.7466254 5.30641553,13.8977793 5.45420477,14.1449067 C5.63798697,14.4521315 5.97719328,14.6430771 6.33939508,14.6430771 C6.70159689,14.6430771 7.04089409,14.4520405 7.22494896,14.1446336 C7.37273821,13.8976882 7.6390497,13.7466254 7.92644797,13.7466254 L8.43098554,13.7466254 C8.7184747,13.7466254 8.9847862,13.8977793 9.13257544,14.1448157 C9.31644853,14.4521315 9.65565484,14.6430771 10.0177658,14.6430771 C10.3799676,14.6430771 10.7192648,14.4521315 10.9032287,14.1448157 C11.051018,13.8977793 11.3174204,13.7466254 11.6048186,13.7466254 L12.0897237,13.7466254 C12.3772129,13.7466254 12.6436152,13.8977793 12.7914045,14.1448157 C12.9752776,14.4521315 13.3144839,14.6430771 13.6765948,14.6430771 C14.0388875,14.6430771 14.3780938,14.4521315 14.5619669,14.1448157 C14.7097561,13.8977793 14.9761585,13.7466254 15.2636477,13.7466254 L15.7681853,13.7466254 C16.0555835,13.7466254 16.321895,13.8976882 16.4697751,14.1447246 C16.6537391,14.4521315 16.9930363,14.6430771 17.3552381,14.6430771 C17.7174399,14.6430771 18.0566463,14.4521315 18.2404284,14.1449067 C18.3882177,13.8977793 18.6546201,13.7466254 18.9421092,13.7466254 L19.4271961,13.7466254 C19.7146852,13.7466254 19.9810876,13.8977793 20.1288769,14.1448157 C20.31275,14.4521315 20.6518654,14.6430771 21.0140672,14.6430771 C21.376269,14.6430771 21.7155662,14.4521315 21.8995302,14.1447246 C22.0473194,13.8977793 22.3136309,13.7466254 22.6011201,13.7466254 L22.8533434,13.7466254 C23.305164,13.7466254 23.671365,14.1134922 23.671365,14.5661343 L23.671365,14.5661343 Z M22.0353218,16.0777641 C21.7156571,16.2104335 21.3689068,16.282095 21.0140672,16.282095 C20.3284741,16.282095 19.6735115,16.0146619 19.1846981,15.5564654 C18.6958847,16.0146619 18.0410129,16.282095 17.3552381,16.282095 C16.6651005,16.282095 16.0059569,16.0110197 15.5160528,15.5472687 C15.0262396,16.0112018 14.367096,16.282095 13.6768675,16.282095 C12.9911835,16.282095 12.3362209,16.0146619 11.8474075,15.5564654 C11.3585941,16.0146619 10.7037223,16.282095 10.0181293,16.282095 C9.32790083,16.282095 8.66866628,16.0110197 8.17885309,15.5472687 C7.68894902,16.0111107 7.02980535,16.282095 6.33966776,16.282095 C5.65398384,16.282095 4.99902117,16.0146619 4.51020779,15.5564654 C4.02139441,16.0145709 3.36643175,16.282095 2.68083872,16.282095 C2.32599911,16.282095 1.97924882,16.2104335 1.65958414,16.0778552 L1.65958414,34.3911487 L22.0354126,34.3911487 L22.0354126,16.0777641 L22.0353218,16.0777641 Z M5.32795676,8.14163939 C4.89622312,8.00778626 4.438131,8.24945034 4.30433901,8.68178685 C3.99812624,9.67102522 4.01485024,10.7128032 4.35278407,11.6943018 C4.46967027,12.0337606 4.78669911,12.2468329 5.1260872,12.2468329 C5.21452443,12.2468329 5.30450681,12.2323549 5.39285315,12.2017599 C5.81995134,12.0542483 6.04672512,11.5877656 5.89948122,11.1598909 C5.67579775,10.5102024 5.66461812,9.82117747 5.86703303,9.16711826 C6.00073412,8.73487282 5.75941774,8.27576569 5.32795676,8.14163939 L5.32795676,8.14163939 Z" id="XMLID_222_"></path>
                        </g>
                        <path d="M37.6772198,42.7047257 L41.9296862,49.1888334 L41.7044687,48.5279877 L42.2011612,55.0120954 L42.3472351,56.9190278 L44.1208577,56.2034917 L46.8749065,55.0924202 C47.5919517,54.8031412 47.9387247,53.9873542 47.6494457,53.270309 C47.3601667,52.5532638 46.5443798,52.2064908 45.8273346,52.4957698 L43.0732858,53.6068413 L44.9929823,54.7982376 L44.4962898,48.31413 L44.4687578,47.9547128 L44.2710723,47.6532843 L40.0186059,41.1691766 C39.5945758,40.5226207 38.7266942,40.3422279 38.0801383,40.7662581 C37.4335824,41.1902882 37.2531896,42.0581698 37.6772198,42.7047257 L37.6772198,42.7047257 Z" id="Shape" fill="#9B4D03"></path>
                        <path d="M20.1204736,28.1182482 L8.10105609,28.1182482 C7.32785744,28.1182482 6.70105609,28.7450495 6.70105609,29.5182482 C6.70105609,30.2914468 7.32785744,30.9182482 8.10105609,30.9182482 L20.1204736,30.9182482 C20.8936722,30.9182482 21.5204736,30.2914468 21.5204736,29.5182482 C21.5204736,28.7450495 20.8936722,28.1182482 20.1204736,28.1182482 L20.1204736,28.1182482 Z" id="Shape" fill="#EF4407"></path>
                        <path d="M20.1204736,32.3883212 L11.2518248,32.3883212 C10.4786262,32.3883212 9.85182481,33.0151225 9.85182481,33.7883212 C9.85182481,34.5615198 10.4786262,35.1883212 11.2518248,35.1883212 L20.1204736,35.1883212 C20.8936722,35.1883212 21.5204736,34.5615198 21.5204736,33.7883212 C21.5204736,33.0151225 20.8936722,32.3883212 20.1204736,32.3883212 L20.1204736,32.3883212 Z" id="Shape" fill="#FFB13D"></path>
                        <path d="M20.1204736,37.1328467 L13.6240876,37.1328467 C12.8508889,37.1328467 12.2240876,37.7596481 12.2240876,38.5328467 C12.2240876,39.3060454 12.8508889,39.9328467 13.6240876,39.9328467 L20.1204736,39.9328467 C20.8936722,39.9328467 21.5204736,39.3060454 21.5204736,38.5328467 C21.5204736,37.7596481 20.8936722,37.1328467 20.1204736,37.1328467 L20.1204736,37.1328467 Z" id="Shape" fill="#AD7952"></path>
                    </g>
                    <path d="M18,20.05 C19.6844685,20.05 21.05,18.6844685 21.05,17 C21.05,15.3155315 19.6844685,13.95 18,13.95 C16.3155315,13.95 14.95,15.3155315 14.95,17 C14.95,18.6844685 16.3155315,20.05 18,20.05 L18,20.05 Z M18,17.95 C17.4753295,17.95 17.05,17.5246705 17.05,17 C17.05,16.4753295 17.4753295,16.05 18,16.05 C18.5246705,16.05 18.95,16.4753295 18.95,17 C18.95,17.5246705 18.5246705,17.95 18,17.95 L18,17.95 Z" id="Shape" fill="#FFB13D"></path>
                    <path d="M54,22.05 C55.1321837,22.05 56.05,21.1321837 56.05,20 C56.05,18.8678163 55.1321837,17.95 54,17.95 C52.8678163,17.95 51.95,18.8678163 51.95,20 C51.95,21.1321837 52.8678163,22.05 54,22.05 L54,22.05 Z M54,19.95 C54.0276142,19.95 54.05,19.9723858 54.05,20 C54.05,20.0276142 54.0276142,20.05 54,20.05 C53.9723858,20.05 53.95,20.0276142 53.95,20 C53.95,19.9723858 53.9723858,19.95 54,19.95 L54,19.95 Z" id="Shape" fill="#BB9A6F"></path>
                    <path d="M53.5,32.05 C54.3560414,32.05 55.05,31.3560414 55.05,30.5 C55.05,29.6439586 54.3560414,28.95 53.5,28.95 C52.6439586,28.95 51.95,29.6439586 51.95,30.5 C51.95,31.3560414 52.6439586,32.05 53.5,32.05 L53.5,32.05 Z M53.5,29.95 C53.8037566,29.95 54.05,30.1962434 54.05,30.5 C54.05,30.8037566 53.8037566,31.05 53.5,31.05 C53.1962434,31.05 52.95,30.8037566 52.95,30.5 C52.95,30.1962434 53.1962434,29.95 53.5,29.95 L53.5,29.95 Z" id="Shape" fill="#F75D21"></path>
                </g>
                <path d="M82.32,11.306 C82.9613365,11.2019995 83.5939969,11.15 84.218,11.15 C84.8420031,11.15 85.48333,11.2019995 86.142,11.306 L86.142,30 C85.48333,30.1040005 84.8506697,30.156 84.244,30.156 C83.6026635,30.156 82.9613365,30.1040005 82.32,30 L82.32,11.306 Z M90.548,10.994 C91.1373363,10.8899995 91.7439969,10.838 92.368,10.838 C92.9920031,10.838 93.6073303,10.8899995 94.214,10.994 L94.214,30 C93.6073303,30.1040005 92.9920031,30.156 92.368,30.156 C91.7439969,30.156 91.1373363,30.1040005 90.548,30 L90.548,10.994 Z M94.734,22.954 L98.062,16.558 C98.7380034,16.4539995 99.4226632,16.402 100.116,16.402 C100.77467,16.402 101.415997,16.4539995 102.04,16.558 L98.608,22.772 L102.612,30 C101.90133,30.1040005 101.21667,30.156 100.558,30.156 C99.9513303,30.156 99.3100034,30.1040005 98.634,30 L94.734,22.954 Z M119.952,27.764 C121.529341,27.7986668 122.690663,28.1496633 123.436,28.817 C124.181337,29.4843367 124.554,30.4333272 124.554,31.664 C124.554,32.3920036 124.363335,33.054997 123.982,33.653 C123.600665,34.251003 123.08067,34.7579979 122.422,35.174 C121.76333,35.5900021 120.983338,35.9106655 120.082,36.136 C119.180662,36.3613345 118.210005,36.474 117.17,36.474 C116.129995,36.474 115.246004,36.3916675 114.518,36.227 C113.789996,36.0623325 113.196336,35.8326681 112.737,35.538 C112.277664,35.2433319 111.948334,34.8793355 111.749,34.446 C111.549666,34.0126645 111.45,33.5360026 111.45,33.016 C111.45,32.2359961 111.636331,31.5946692 112.009,31.092 C112.381669,30.5893308 112.879997,30.1473352 113.504,29.766 C113.105331,29.5233321 112.789001,29.2243351 112.555,28.869 C112.320999,28.5136649 112.204,28.0586694 112.204,27.504 C112.204,26.84533 112.342665,26.3080021 112.62,25.892 C112.897335,25.4759979 113.304664,25.0773352 113.842,24.696 C113.23533,24.2626645 112.767335,23.7340031 112.438,23.11 C112.108665,22.4859969 111.944,21.7926705 111.944,21.03 C111.944,20.3539966 112.073999,19.7256696 112.334,19.145 C112.594001,18.5643304 112.970998,18.0616688 113.465,17.637 C113.959002,17.2123312 114.56133,16.8786679 115.272,16.636 C115.98267,16.3933321 116.779996,16.272 117.664,16.272 C118.530671,16.272 119.327996,16.406332 120.056,16.675 C120.784004,16.943668 121.390664,17.2859979 121.876,17.702 C122.205335,17.2686645 122.612664,16.9436677 123.098,16.727 C123.583336,16.5103322 124.241996,16.402 125.074,16.402 C125.108667,16.6273345 125.139,16.8483322 125.165,17.065 C125.191,17.2816677 125.204,17.5113321 125.204,17.754 C125.204,18.0313347 125.195333,18.3086653 125.178,18.586 C125.160667,18.8633347 125.126,19.1493319 125.074,19.444 L122.968,19.444 C123.054667,19.6173342 123.132666,19.8253321 123.202,20.068 C123.271334,20.3106679 123.306,20.6313313 123.306,21.03 C123.306,21.7060034 123.180335,22.3343304 122.929,22.915 C122.677665,23.4956696 122.309336,23.9939979 121.824,24.41 C121.338664,24.8260021 120.745004,25.1553321 120.043,25.398 C119.340996,25.6406679 118.548004,25.762 117.664,25.762 C116.918663,25.762 116.251336,25.6840008 115.662,25.528 C115.367332,25.7186676 115.185334,25.9223322 115.116,26.139 C115.046666,26.3556677 115.012,26.5593324 115.012,26.75 C115.012,27.0273347 115.102999,27.2526658 115.285,27.426 C115.467001,27.5993342 115.835331,27.6946666 116.39,27.712 L119.952,27.764 Z M116.624,30.468 C116.242665,30.4506666 115.926335,30.4939995 115.675,30.598 C115.423665,30.7020005 115.224334,30.8363325 115.077,31.001 C114.929666,31.1656675 114.825667,31.3476657 114.765,31.547 C114.704333,31.7463343 114.674,31.9413324 114.674,32.132 C114.674,32.79067 114.920998,33.2369988 115.415,33.471 C115.909002,33.7050012 116.571996,33.822 117.404,33.822 C118.496005,33.822 119.375663,33.6486684 120.043,33.302 C120.710337,32.9553316 121.044,32.4873363 121.044,31.898 C121.044,31.7246658 121.022334,31.5600008 120.979,31.404 C120.935666,31.2479992 120.853334,31.1050006 120.732,30.975 C120.610666,30.8449993 120.441668,30.7366671 120.225,30.65 C120.008332,30.5633329 119.718002,30.52 119.354,30.52 L116.624,30.468 Z M117.69,23.37 C118.418004,23.37 118.942332,23.1620021 119.263,22.746 C119.583668,22.3299979 119.744,21.7580036 119.744,21.03 C119.744,20.3019964 119.583668,19.7256688 119.263,19.301 C118.942332,18.8763312 118.418004,18.664 117.69,18.664 C116.944663,18.664 116.407335,18.8763312 116.078,19.301 C115.748665,19.7256688 115.584,20.3019964 115.584,21.03 C115.584,21.7580036 115.748665,22.3299979 116.078,22.746 C116.407335,23.1620021 116.944663,23.37 117.69,23.37 L117.69,23.37 Z M134.836,23.838 C134.627999,23.8033332 134.402668,23.7730001 134.16,23.747 C133.917332,23.7209999 133.700668,23.708 133.51,23.708 C132.660662,23.708 131.989002,23.8596651 131.495,24.163 C131.000998,24.4663348 130.754,24.9559966 130.754,25.632 C130.754,26.0826689 130.849332,26.4293321 131.04,26.672 C131.230668,26.9146679 131.460332,27.0923328 131.729,27.205 C131.997668,27.3176672 132.283665,27.3869999 132.587,27.413 C132.890335,27.4390001 133.154666,27.452 133.38,27.452 C133.640001,27.452 133.899999,27.4303335 134.16,27.387 C134.420001,27.3436664 134.645332,27.3046668 134.836,27.27 L134.836,23.838 Z M134.836,21.16 C134.836,20.7439979 134.766667,20.4060013 134.628,20.146 C134.489333,19.8859987 134.298668,19.6823341 134.056,19.535 C133.813332,19.3876659 133.514335,19.2880003 133.159,19.236 C132.803665,19.1839997 132.409336,19.158 131.976,19.158 C131.039995,19.158 130.043339,19.3399982 128.986,19.704 C128.743332,19.2533311 128.561334,18.8286687 128.44,18.43 C128.318666,18.0313313 128.258,17.5546694 128.258,17 C129.02067,16.7399987 129.78333,16.5493339 130.546,16.428 C131.30867,16.3066661 132.01933,16.246 132.678,16.246 C134.480676,16.246 135.888995,16.679329 136.903,17.546 C137.917005,18.412671 138.424,19.7993238 138.424,21.706 L138.424,29.506 C137.81733,29.6966676 137.080671,29.8786658 136.214,30.052 C135.347329,30.2253342 134.368005,30.312 133.276,30.312 C132.391996,30.312 131.58167,30.2340008 130.845,30.078 C130.10833,29.9219992 129.475669,29.6620018 128.947,29.298 C128.418331,28.9339982 128.011001,28.4660029 127.725,27.894 C127.438999,27.3219971 127.296,26.6200042 127.296,25.788 C127.296,24.9559958 127.473665,24.2583361 127.829,23.695 C128.184335,23.1316638 128.643664,22.6810017 129.207,22.343 C129.770336,22.0049983 130.398663,21.7623341 131.092,21.615 C131.785337,21.4676659 132.478663,21.394 133.172,21.394 C133.674669,21.394 134.22933,21.4199997 134.836,21.472 L134.836,21.16 Z M149.42,16.558 C149.662668,16.5059997 149.905332,16.4670001 150.148,16.441 C150.390668,16.4149999 150.659332,16.402 150.954,16.402 C151.248668,16.402 151.508666,16.4149999 151.734,16.441 C151.959334,16.4670001 152.193332,16.5059997 152.436,16.558 C152.488,16.6446671 152.535666,16.7703325 152.579,16.935 C152.622334,17.0996675 152.661333,17.2729991 152.696,17.455 C152.730667,17.6370009 152.761,17.8146658 152.787,17.988 C152.813,18.1613342 152.834667,18.3086661 152.852,18.43 C153.025334,18.1699987 153.233332,17.9100013 153.476,17.65 C153.718668,17.3899987 154.000332,17.156001 154.321,16.948 C154.641668,16.739999 155.001331,16.5710006 155.4,16.441 C155.798669,16.3109993 156.240664,16.246 156.726,16.246 C158.251341,16.246 159.399663,16.6619958 160.171,17.494 C160.942337,18.3260042 161.328,19.6346577 161.328,21.42 L161.328,30 C160.703997,30.1040005 160.08867,30.156 159.482,30.156 C158.87533,30.156 158.260003,30.1040005 157.636,30 L157.636,22.408 C157.636,21.4719953 157.493001,20.7526692 157.207,20.25 C156.920999,19.7473308 156.42267,19.496 155.712,19.496 C155.417332,19.496 155.114002,19.5393329 154.802,19.626 C154.489998,19.7126671 154.208335,19.8816654 153.957,20.133 C153.705665,20.3843346 153.502001,20.7353311 153.346,21.186 C153.189999,21.6366689 153.112,22.2259964 153.112,22.954 L153.112,30 C152.487997,30.1040005 151.87267,30.156 151.266,30.156 C150.65933,30.156 150.044003,30.1040005 149.42,30 L149.42,16.558 Z M172.39,23.838 C172.181999,23.8033332 171.956668,23.7730001 171.714,23.747 C171.471332,23.7209999 171.254668,23.708 171.064,23.708 C170.214662,23.708 169.543002,23.8596651 169.049,24.163 C168.554998,24.4663348 168.308,24.9559966 168.308,25.632 C168.308,26.0826689 168.403332,26.4293321 168.594,26.672 C168.784668,26.9146679 169.014332,27.0923328 169.283,27.205 C169.551668,27.3176672 169.837665,27.3869999 170.141,27.413 C170.444335,27.4390001 170.708666,27.452 170.934,27.452 C171.194001,27.452 171.453999,27.4303335 171.714,27.387 C171.974001,27.3436664 172.199332,27.3046668 172.39,27.27 L172.39,23.838 Z M172.39,21.16 C172.39,20.7439979 172.320667,20.4060013 172.182,20.146 C172.043333,19.8859987 171.852668,19.6823341 171.61,19.535 C171.367332,19.3876659 171.068335,19.2880003 170.713,19.236 C170.357665,19.1839997 169.963336,19.158 169.53,19.158 C168.593995,19.158 167.597339,19.3399982 166.54,19.704 C166.297332,19.2533311 166.115334,18.8286687 165.994,18.43 C165.872666,18.0313313 165.812,17.5546694 165.812,17 C166.57467,16.7399987 167.33733,16.5493339 168.1,16.428 C168.86267,16.3066661 169.57333,16.246 170.232,16.246 C172.034676,16.246 173.442995,16.679329 174.457,17.546 C175.471005,18.412671 175.978,19.7993238 175.978,21.706 L175.978,29.506 C175.37133,29.6966676 174.634671,29.8786658 173.768,30.052 C172.901329,30.2253342 171.922005,30.312 170.83,30.312 C169.945996,30.312 169.13567,30.2340008 168.399,30.078 C167.66233,29.9219992 167.029669,29.6620018 166.501,29.298 C165.972331,28.9339982 165.565001,28.4660029 165.279,27.894 C164.992999,27.3219971 164.85,26.6200042 164.85,25.788 C164.85,24.9559958 165.027665,24.2583361 165.383,23.695 C165.738335,23.1316638 166.197664,22.6810017 166.761,22.343 C167.324336,22.0049983 167.952663,21.7623341 168.646,21.615 C169.339337,21.4676659 170.032663,21.394 170.726,21.394 C171.228669,21.394 171.78333,21.4199997 172.39,21.472 L172.39,21.16 Z M186.962,23.838 C186.753999,23.8033332 186.528668,23.7730001 186.286,23.747 C186.043332,23.7209999 185.826668,23.708 185.636,23.708 C184.786662,23.708 184.115002,23.8596651 183.621,24.163 C183.126998,24.4663348 182.88,24.9559966 182.88,25.632 C182.88,26.0826689 182.975332,26.4293321 183.166,26.672 C183.356668,26.9146679 183.586332,27.0923328 183.855,27.205 C184.123668,27.3176672 184.409665,27.3869999 184.713,27.413 C185.016335,27.4390001 185.280666,27.452 185.506,27.452 C185.766001,27.452 186.025999,27.4303335 186.286,27.387 C186.546001,27.3436664 186.771332,27.3046668 186.962,27.27 L186.962,23.838 Z M186.962,21.16 C186.962,20.7439979 186.892667,20.4060013 186.754,20.146 C186.615333,19.8859987 186.424668,19.6823341 186.182,19.535 C185.939332,19.3876659 185.640335,19.2880003 185.285,19.236 C184.929665,19.1839997 184.535336,19.158 184.102,19.158 C183.165995,19.158 182.169339,19.3399982 181.112,19.704 C180.869332,19.2533311 180.687334,18.8286687 180.566,18.43 C180.444666,18.0313313 180.384,17.5546694 180.384,17 C181.14667,16.7399987 181.90933,16.5493339 182.672,16.428 C183.43467,16.3066661 184.14533,16.246 184.804,16.246 C186.606676,16.246 188.014995,16.679329 189.029,17.546 C190.043005,18.412671 190.55,19.7993238 190.55,21.706 L190.55,29.506 C189.94333,29.6966676 189.206671,29.8786658 188.34,30.052 C187.473329,30.2253342 186.494005,30.312 185.402,30.312 C184.517996,30.312 183.70767,30.2340008 182.971,30.078 C182.23433,29.9219992 181.601669,29.6620018 181.073,29.298 C180.544331,28.9339982 180.137001,28.4660029 179.851,27.894 C179.564999,27.3219971 179.422,26.6200042 179.422,25.788 C179.422,24.9559958 179.599665,24.2583361 179.955,23.695 C180.310335,23.1316638 180.769664,22.6810017 181.333,22.343 C181.896336,22.0049983 182.524663,21.7623341 183.218,21.615 C183.911337,21.4676659 184.604663,21.394 185.298,21.394 C185.800669,21.394 186.35533,21.4199997 186.962,21.472 L186.962,21.16 Z M194.826,16.558 C195.086001,16.5059997 195.332999,16.4670001 195.567,16.441 C195.801001,16.4149999 196.056665,16.402 196.334,16.402 C196.594001,16.402 196.849665,16.4193332 197.101,16.454 C197.352335,16.4886668 197.599332,16.5319997 197.842,16.584 C197.894,16.6706671 197.941666,16.7963325 197.985,16.961 C198.028334,17.1256675 198.067333,17.2989991 198.102,17.481 C198.136667,17.6630009 198.167,17.8449991 198.193,18.027 C198.219,18.2090009 198.240667,18.3606661 198.258,18.482 C198.639335,17.944664 199.107331,17.4636688 199.662,17.039 C200.216669,16.6143312 200.909996,16.402 201.742,16.402 C201.915334,16.402 202.114666,16.4106666 202.34,16.428 C202.565334,16.4453334 202.729999,16.4713332 202.834,16.506 C202.868667,16.6793342 202.894667,16.8786655 202.912,17.104 C202.929333,17.3293345 202.938,17.5633321 202.938,17.806 C202.938,18.1006681 202.925,18.4213316 202.899,18.768 C202.873,19.1146684 202.825334,19.4439984 202.756,19.756 C202.565332,19.7213332 202.353001,19.704 202.119,19.704 L201.69,19.704 C201.395332,19.704 201.066002,19.734333 200.702,19.795 C200.337998,19.855667 199.991335,20.0159987 199.662,20.276 C199.332665,20.5360013 199.059668,20.9259974 198.843,21.446 C198.626332,21.9660026 198.518,22.6939953 198.518,23.63 L198.518,30.026 C198.205998,30.0780003 197.894002,30.1126666 197.582,30.13 C197.269998,30.1473334 196.966668,30.156 196.672,30.156 C196.377332,30.156 196.078335,30.1473334 195.775,30.13 C195.471665,30.1126666 195.155335,30.0780003 194.826,30.026 L194.826,16.558 Z M91.14,37.2080254 C91.4760017,37.1520251 91.8073317,37.1146922 92.134,37.0960254 C92.4606683,37.0773586 92.7826651,37.0680254 93.1,37.0680254 C93.4173349,37.0680254 93.7439983,37.0773586 94.08,37.0960254 C94.4160017,37.1146922 94.7519983,37.1520251 95.088,37.2080254 L95.088,57.2000254 C94.2106623,57.46136 93.3193379,57.6620247 92.414,57.8020254 C91.5086621,57.9420261 90.4120064,58.0120254 89.124,58.0120254 C88.1346617,58.0120254 87.1873379,57.8766934 86.282,57.6060254 C85.3766621,57.3353574 84.5786701,56.9060283 83.888,56.3180254 C83.1973299,55.7300225 82.6513353,54.9693634 82.25,54.0360254 C81.8486647,53.1026874 81.648,51.9640321 81.648,50.6200254 C81.648,49.5560201 81.8206649,48.5526968 82.166,47.6100254 C82.5113351,46.667354 83.0059968,45.8506955 83.65,45.1600254 C84.2940032,44.4693553 85.0733288,43.9233607 85.988,43.5220254 C86.9026712,43.1206901 87.9199944,42.9200254 89.04,42.9200254 C89.3760017,42.9200254 89.7259982,42.9340253 90.09,42.9620254 C90.4540018,42.9900255 90.8039983,43.0506916 91.14,43.1440254 L91.14,37.2080254 Z M91.14,46.1960254 C90.7666648,46.1026916 90.4633345,46.0420255 90.23,46.0140254 C89.9966655,45.9860253 89.7026684,45.9720254 89.348,45.9720254 C88.7319969,45.9720254 88.1953356,46.0980241 87.738,46.3500254 C87.2806644,46.6020267 86.9026682,46.9380233 86.604,47.3580254 C86.3053318,47.7780275 86.0860007,48.2726892 85.946,48.8420254 C85.8059993,49.4113616 85.736,50.0040223 85.736,50.6200254 C85.736,51.3853626 85.8293324,52.0340227 86.016,52.5660254 C86.2026676,53.0980281 86.4593317,53.5226905 86.786,53.8400254 C87.1126683,54.1573603 87.4999978,54.3860247 87.948,54.5260254 C88.3960022,54.6660261 88.8813307,54.7360254 89.404,54.7360254 C89.7213349,54.7360254 90.0106654,54.7220255 90.272,54.6940254 C90.5333346,54.6660253 90.8226651,54.6053592 91.14,54.5120254 L91.14,46.1960254 Z M103.125037,51.6560254 C103.199704,52.776031 103.5917,53.5880229 104.301037,54.0920254 C105.010374,54.5960279 105.943698,54.8480254 107.101037,54.8480254 C107.735707,54.8480254 108.384367,54.7873593 109.047037,54.6660254 C109.709707,54.5446915 110.339701,54.3720265 110.937037,54.1480254 C111.142371,54.5213606 111.319703,54.9693561 111.469037,55.4920254 C111.618371,56.0146947 111.70237,56.5746891 111.721037,57.1720254 C110.26503,57.7320282 108.622379,58.0120254 106.793037,58.0120254 C105.44903,58.0120254 104.296375,57.8253606 103.335037,57.4520254 C102.373699,57.0786902 101.589707,56.5606954 100.983037,55.8980254 C100.376367,55.2353554 99.9283718,54.4466966 99.639037,53.5320254 C99.3497022,52.6173542 99.205037,51.6186975 99.205037,50.5360254 C99.205037,49.4720201 99.3543689,48.4733634 99.653037,47.5400254 C99.9517052,46.6066874 100.395034,45.7946955 100.983037,45.1040254 C101.57104,44.4133553 102.299033,43.8673607 103.167037,43.4660254 C104.035041,43.0646901 105.047698,42.8640254 106.205037,42.8640254 C107.213042,42.8640254 108.109033,43.041357 108.893037,43.3960254 C109.677041,43.7506938 110.344368,44.2360223 110.895037,44.8520254 C111.445706,45.4680285 111.861036,46.2006878 112.141037,47.0500254 C112.421038,47.899363 112.561037,48.8093539 112.561037,49.7800254 C112.561037,50.1346938 112.547037,50.4846903 112.519037,50.8300254 C112.491037,51.1753605 112.458371,51.450691 112.421037,51.6560254 L103.125037,51.6560254 Z M108.809037,48.8840254 C108.771703,47.9880209 108.524373,47.2646948 108.067037,46.7140254 C107.609701,46.163356 106.970374,45.8880254 106.149037,45.8880254 C105.215699,45.8880254 104.506373,46.1493561 104.021037,46.6720254 C103.535701,47.1946947 103.246371,47.9320206 103.153037,48.8840254 L108.809037,48.8840254 Z M123.931111,43.2000254 C124.192446,43.1440251 124.453776,43.1020255 124.715111,43.0740254 C124.976446,43.0460253 125.265776,43.0320254 125.583111,43.0320254 C125.900446,43.0320254 126.180443,43.0460253 126.423111,43.0740254 C126.665779,43.1020255 126.917776,43.1440251 127.179111,43.2000254 C127.235111,43.2933592 127.286444,43.4286912 127.333111,43.6060254 C127.379778,43.7833596 127.421778,43.9700244 127.459111,44.1660254 C127.496445,44.3620264 127.529111,44.5533578 127.557111,44.7400254 C127.585111,44.926693 127.608444,45.0853581 127.627111,45.2160254 C127.776445,44.936024 127.972443,44.6560268 128.215111,44.3760254 C128.457779,44.096024 128.747109,43.8440265 129.083111,43.6200254 C129.419113,43.3960243 129.797109,43.2140261 130.217111,43.0740254 C130.637113,42.9340247 131.108442,42.8640254 131.631111,42.8640254 C133.889789,42.8640254 135.336441,43.7226835 135.971111,45.4400254 C136.344446,44.7493553 136.871774,44.1473613 137.553111,43.6340254 C138.234448,43.1206895 139.097772,42.8640254 140.143111,42.8640254 C141.785786,42.8640254 142.994441,43.3166875 143.769111,44.2220254 C144.543782,45.1273633 144.931111,46.5413491 144.931111,48.4640254 L144.931111,57.6760254 C144.259108,57.788026 143.596448,57.8440254 142.943111,57.8440254 C142.289774,57.8440254 141.627114,57.788026 140.955111,57.6760254 L140.955111,49.5000254 C140.955111,48.4920204 140.829112,47.7173614 140.577111,47.1760254 C140.32511,46.6346894 139.816448,46.3640254 139.051111,46.3640254 C138.733776,46.3640254 138.421113,46.4106916 138.113111,46.5040254 C137.80511,46.5973592 137.525112,46.7700241 137.273111,47.0220254 C137.02111,47.2740267 136.815779,47.6286898 136.657111,48.0860254 C136.498444,48.543361 136.419111,49.1360218 136.419111,49.8640254 L136.419111,57.6760254 C135.747108,57.788026 135.084448,57.8440254 134.431111,57.8440254 C133.777774,57.8440254 133.115114,57.788026 132.443111,57.6760254 L132.443111,49.5000254 C132.443111,48.4920204 132.317112,47.7173614 132.065111,47.1760254 C131.81311,46.6346894 131.304448,46.3640254 130.539111,46.3640254 C130.221776,46.3640254 129.904446,46.4106916 129.587111,46.5040254 C129.269776,46.5973592 128.985112,46.7793574 128.733111,47.0500254 C128.48111,47.3206934 128.280445,47.6986896 128.131111,48.1840254 C127.981777,48.6693612 127.907111,49.3040215 127.907111,50.0880254 L127.907111,57.6760254 C127.235108,57.788026 126.572448,57.8440254 125.919111,57.8440254 C125.265774,57.8440254 124.603114,57.788026 123.931111,57.6760254 L123.931111,43.2000254 Z M156.804148,51.0400254 C156.580147,51.0026919 156.337483,50.9700255 156.076148,50.9420254 C155.814813,50.9140253 155.581482,50.9000254 155.376148,50.9000254 C154.461477,50.9000254 153.738151,51.0633571 153.206148,51.3900254 C152.674145,51.7166937 152.408148,52.2440218 152.408148,52.9720254 C152.408148,53.4573612 152.510814,53.8306908 152.716148,54.0920254 C152.921482,54.35336 153.168813,54.5446915 153.458148,54.6660254 C153.747483,54.7873593 154.05548,54.8620253 154.382148,54.8900254 C154.708816,54.9180255 154.99348,54.9320254 155.236148,54.9320254 C155.516149,54.9320254 155.796147,54.9086923 156.076148,54.8620254 C156.356149,54.8153585 156.598814,54.7733589 156.804148,54.7360254 L156.804148,51.0400254 Z M156.804148,48.1560254 C156.804148,47.7080232 156.729482,47.3440268 156.580148,47.0640254 C156.430814,46.784024 156.225483,46.5646929 155.964148,46.4060254 C155.702813,46.2473579 155.380817,46.1400257 154.998148,46.0840254 C154.615479,46.0280251 154.190817,46.0000254 153.724148,46.0000254 C152.716143,46.0000254 151.64282,46.1960234 150.504148,46.5880254 C150.242813,46.1026896 150.046815,45.6453609 149.916148,45.2160254 C149.785481,44.7866899 149.720148,44.2733617 149.720148,43.6760254 C150.541485,43.396024 151.362811,43.1906927 152.184148,43.0600254 C153.005485,42.9293581 153.770811,42.8640254 154.480148,42.8640254 C156.421491,42.8640254 157.938143,43.3306874 159.030148,44.2640254 C160.122154,45.1973634 160.668148,46.6906818 160.668148,48.7440254 L160.668148,57.1440254 C160.014811,57.3493598 159.221486,57.5453578 158.288148,57.7320254 C157.35481,57.918693 156.300154,58.0120254 155.124148,58.0120254 C154.172143,58.0120254 153.299485,57.9280262 152.506148,57.7600254 C151.712811,57.5920246 151.031484,57.3120274 150.462148,56.9200254 C149.892812,56.5280234 149.45415,56.0240285 149.146148,55.4080254 C148.838147,54.7920223 148.684148,54.0360299 148.684148,53.1400254 C148.684148,52.2440209 148.875479,51.4926951 149.258148,50.8860254 C149.640817,50.2793557 150.135478,49.7940272 150.742148,49.4300254 C151.348818,49.0660236 152.025478,48.8046929 152.772148,48.6460254 C153.518818,48.4873579 154.265478,48.4080254 155.012148,48.4080254 C155.553484,48.4080254 156.150811,48.4360251 156.804148,48.4920254 L156.804148,48.1560254 Z M165.233185,43.2000254 C165.513186,43.1440251 165.779184,43.1020255 166.031185,43.0740254 C166.283186,43.0460253 166.558517,43.0320254 166.857185,43.0320254 C167.137186,43.0320254 167.412517,43.0506919 167.683185,43.0880254 C167.953853,43.1253589 168.21985,43.1720251 168.481185,43.2280254 C168.537185,43.3213592 168.588518,43.4566912 168.635185,43.6340254 C168.681852,43.8113596 168.723852,43.9980244 168.761185,44.1940254 C168.798519,44.3900264 168.831185,44.5860244 168.859185,44.7820254 C168.887185,44.9780264 168.910518,45.1413581 168.929185,45.2720254 C169.339854,44.6933558 169.843849,44.175361 170.441185,43.7180254 C171.038521,43.2606898 171.785181,43.0320254 172.681185,43.0320254 C172.867853,43.0320254 173.082517,43.0413586 173.325185,43.0600254 C173.567853,43.0786922 173.745185,43.1066919 173.857185,43.1440254 C173.894519,43.330693 173.922518,43.5453575 173.941185,43.7880254 C173.959852,44.0306933 173.969185,44.2826908 173.969185,44.5440254 C173.969185,44.8613603 173.955185,45.2066902 173.927185,45.5800254 C173.899185,45.9533606 173.847852,46.3080237 173.773185,46.6440254 C173.567851,46.6066919 173.339186,46.5880254 173.087185,46.5880254 L172.625185,46.5880254 C172.30785,46.5880254 171.953187,46.6206917 171.561185,46.6860254 C171.169183,46.7513591 170.795854,46.924024 170.441185,47.2040254 C170.086517,47.4840268 169.79252,47.9040226 169.559185,48.4640254 C169.325851,49.0240282 169.209185,49.8080204 169.209185,50.8160254 L169.209185,57.7040254 C168.873183,57.7600257 168.537187,57.7973586 168.201185,57.8160254 C167.865183,57.8346922 167.53852,57.8440254 167.221185,57.8440254 C166.90385,57.8440254 166.581853,57.8346922 166.255185,57.8160254 C165.928517,57.7973586 165.587854,57.7600257 165.233185,57.7040254 L165.233185,43.2000254 Z M177.274222,37.2080254 C177.908892,37.0960248 178.562219,37.0400254 179.234222,37.0400254 C179.906225,37.0400254 180.568885,37.0960248 181.222222,37.2080254 L181.222222,57.6760254 C180.568885,57.788026 179.906225,57.8440254 179.234222,57.8440254 C178.562219,57.8440254 177.908892,57.788026 177.274222,57.6760254 L177.274222,37.2080254 Z M181.782222,50.0880254 L185.366222,43.2000254 C186.094226,43.0880248 186.831552,43.0320254 187.578222,43.0320254 C188.287559,43.0320254 188.978219,43.0880248 189.650222,43.2000254 L185.954222,49.8920254 L190.266222,57.6760254 C189.500885,57.788026 188.763559,57.8440254 188.054222,57.8440254 C187.400885,57.8440254 186.710226,57.788026 185.982222,57.6760254 L181.782222,50.0880254 Z M193.935259,46.2240254 L192.115259,46.2240254 L191.975259,45.6640254 L197.211259,38.9720254 L197.855259,38.9720254 L197.855259,43.2000254 L201.243259,43.2000254 C201.299259,43.4800268 201.336592,43.7320243 201.355259,43.9560254 C201.373926,44.1800265 201.383259,44.4133575 201.383259,44.6560254 C201.383259,44.91736 201.373926,45.1693575 201.355259,45.4120254 C201.336592,45.6546933 201.299259,45.9253572 201.243259,46.2240254 L197.855259,46.2240254 L197.855259,51.9080254 C197.855259,52.486695 197.901925,52.953357 197.995259,53.3080254 C198.088593,53.6626938 198.223925,53.942691 198.401259,54.1480254 C198.578593,54.3533598 198.797924,54.4933584 199.059259,54.5680254 C199.320594,54.6426924 199.628591,54.6800254 199.983259,54.6800254 C200.263261,54.6800254 200.538591,54.6566923 200.809259,54.6100254 C201.079927,54.5633585 201.317925,54.5213589 201.523259,54.4840254 C201.653926,54.8386938 201.747259,55.2073568 201.803259,55.5900254 C201.859259,55.972694 201.887259,56.3133572 201.887259,56.6120254 C201.887259,56.8173598 201.882592,56.9900247 201.873259,57.1300254 C201.863926,57.2700261 201.849926,57.4053581 201.831259,57.5360254 C200.972588,57.7413598 200.08593,57.8440254 199.171259,57.8440254 C197.472584,57.8440254 196.175264,57.4473627 195.279259,56.6540254 C194.383255,55.8606881 193.935259,54.5680344 193.935259,52.7760254 L193.935259,46.2240254 Z" id="Ik-ga-naar-" fill="#EF4407" sketch:type="MSShapeGroup"></path>
            </g>
        </g>
    </g>
</svg>