<?xml version="1.0" encoding="UTF-8" standalone="no"?>
<svg width="141px" height="217px" viewBox="0 0 141 217" version="1.1" xmlns="http://www.w3.org/2000/svg" xmlns:xlink="http://www.w3.org/1999/xlink" xmlns:sketch="http://www.bohemiancoding.com/sketch/ns">
    <!-- Generator: bin/sketchtool 1.4 (305) - http://www.bohemiancoding.com/sketch -->
    <title>logo2</title>
    <desc>Created with bin/sketchtool.</desc>
    <defs></defs>
    <g id="UI-kit" stroke="none" stroke-width="1" fill="none" fill-rule="evenodd" sketch:type="MSPage">
        <g id="market-UI-kit" sketch:type="MSArtboardGroup" transform="translate(-54.000000, -132.000000)">
            <g id="logo2" sketch:type="MSLayerGroup" transform="translate(56.000000, 134.000000)">
                <g id="Group" sketch:type="MSShapeGroup">
                    <circle id="Oval-1" stroke="#EF4407" stroke-width="4" fill="#FFFFFF" cx="68.5" cy="68.5" r="68.5"></circle>
                    <path d="M65.1938477,92.8798828 L68.0625,100.921875 L56.7939453,109.203125 L60.7011719,111.786133" id="Path-22" stroke="#9B4D03" stroke-width="4" stroke-linecap="round"></path>
                    <g id="groceries" transform="translate(48.000000, 18.000000)" fill="#FC9E3F">
                        <path d="M2.7816092,4.31472727 C2.31015326,3.4860202 2.598659,2.43123232 3.42586207,1.95891919 C5.25766284,0.913343434 6.85747126,0.697242424 8.18007663,1.3159899 C9.74482759,2.04835354 10.462069,3.66815152 10.9218391,5.51882828 C13.3795019,4.24506061 16.0896552,3.48659596 18.8773946,3.30369697 C21.9042146,3.10506061 24.856705,3.5710404 27.6549808,4.68820202 C28.5394636,5.04152525 28.9706897,6.0460303 28.6181992,6.93212121 C28.2655172,7.81821212 27.2628352,8.25060606 26.3781609,7.89709091 C24.0603448,6.97146465 21.6126437,6.58589899 19.1028736,6.75056566 C16.4509579,6.92463636 13.8848659,7.72589899 11.6235632,9.07912121 C11.8582375,10.267101 12.1530651,11.4429899 12.5781609,11.9337273 C13.2022989,12.6541919 13.1254789,13.7450606 12.4065134,14.3703333 C12.0802682,14.6541818 11.6775862,14.7933232 11.2770115,14.7933232 C10.794636,14.7933232 10.3151341,14.5918081 9.9743295,14.1983737 C8.78927203,12.8307576 8.39693487,10.6543939 8.01743295,8.54961616 C7.77681992,7.21481818 7.3289272,4.73023232 6.72049808,4.44542424 C6.59003831,4.38381818 6.09022989,4.41337374 5.13314176,4.95976768 C4.30632184,5.4330404 3.25306513,5.14343434 2.7816092,4.31472727 L2.7816092,4.31472727 Z M23.2590038,13.9494545 C23.9275862,13.9494545 24.5637931,13.5575556 24.8440613,12.903303 C25.2197318,12.0268081 24.8149425,11.0109798 23.9398467,10.6346263 C21.9329502,9.77175758 19.75,9.57523232 17.6266284,10.0669293 C16.6988506,10.2816869 16.1206897,11.2094242 16.335249,12.1388889 C16.5498084,13.0683535 17.4762452,13.6483333 18.4034483,13.4326162 C19.8070881,13.1073131 21.2511494,13.2376263 22.5796935,13.8091616 C22.801341,13.9045455 23.0319923,13.9494545 23.2590038,13.9494545 L23.2590038,13.9494545 Z M26.7114943,18.2434545 L27.1582375,23.2629091 C27.1597701,23.2861313 27.1618774,23.3091616 27.1643678,23.332 L27.3777778,25.7288788 C27.4576628,26.6268687 28.2101533,27.3028081 29.0931034,27.3028081 C29.1444444,27.3028081 29.1961686,27.3003131 29.2482759,27.295899 C30.1967433,27.2112626 30.8969349,26.3721919 30.8124521,25.4218081 L30.7632184,24.8692727 L32.7308429,24.8692727 C33.6831418,24.8692727 34.4549808,24.0960303 34.4549808,23.142 C34.4549808,22.1879697 33.6831418,21.4147273 32.7308429,21.4147273 L30.4557471,21.4147273 L30.1461686,17.9363838 C30.0206897,16.5248182 30.7045977,15.4506465 31.3005747,14.7979293 C32.4704981,13.5166768 34.2770115,12.7518788 36.1327586,12.7518788 L40.4676245,12.7518788 C42.3233716,12.7518788 44.1296935,13.5166768 45.2996169,14.7977374 C45.8103448,15.3569899 46.3858238,16.2261919 46.460728,17.3523737 L44.2304598,17.3523737 C43.2781609,17.3523737 42.5063218,18.1256162 42.5063218,19.0796465 C42.5063218,20.0336768 43.2781609,20.8069192 44.2304598,20.8069192 L46.1984674,20.8069192 L45.7877395,25.422 C45.7032567,26.372 46.4034483,27.2110707 47.3519157,27.295899 C48.3007663,27.3774646 49.137931,26.6790707 49.2224138,25.7286869 L49.8885057,18.2430707 C50.0733716,16.1640101 49.3471264,14.1125859 47.8436782,12.4659192 C46.0318008,10.4818586 43.2743295,9.29733333 40.4676245,9.29733333 L40.408046,9.29733333 C41.1400383,6.73713131 42.6231801,4.60107071 44.5701149,3.38487879 C45.3781609,2.88013131 45.6247126,1.81459596 45.1208812,1.00546465 C44.6172414,0.195565657 43.5538314,-0.0514343434 42.7455939,0.45369697 C40.9141762,1.59772727 39.3894636,3.30312121 38.3001916,5.35262626 C37.210728,3.30292929 35.6860153,1.59772727 33.8545977,0.45369697 C33.0463602,-0.0510505051 31.9831418,0.195949495 31.4793103,1.00546465 C30.9754789,1.81478788 31.2220307,2.88032323 32.0300766,3.38487879 C33.9770115,4.60107071 35.4601533,6.73713131 36.191954,9.29733333 L36.1327586,9.29733333 C33.3258621,9.29733333 30.5683908,10.4820505 28.7563218,12.466303 C27.2528736,14.1127778 26.5266284,16.1643939 26.7114943,18.2434545 L26.7114943,18.2434545 Z M18.2289272,16.9247778 C17.4275862,16.4092828 16.3611111,16.6424646 15.8465517,17.4456465 C15.3323755,18.2484444 15.5651341,19.3168586 16.3664751,19.8321616 C17.5835249,20.6146162 18.5001916,21.7398384 19.0176245,23.0863434 C19.2812261,23.7724545 19.9344828,24.1937172 20.6270115,24.1937172 C20.8329502,24.1937172 21.0423372,24.1564848 21.245977,24.077798 C22.1346743,23.7350303 22.5777778,22.7355152 22.2356322,21.845202 C21.4528736,19.8081717 20.067433,18.1066162 18.2289272,16.9247778 L18.2289272,16.9247778 Z M1.78678161,26.4036667 C1.82471264,26.4036667 1.86283525,26.4025152 1.90114943,26.3998283 C2.851341,26.3376465 3.5710728,25.5154646 3.50881226,24.5635455 C3.27471264,20.9809899 4.16532567,17.4926667 6.08448276,14.475697 C6.59616858,13.6713636 6.36015326,12.6035253 5.55708812,12.0907172 C4.75440613,11.5782929 3.68850575,11.8147374 3.17643678,12.6190707 C0.860344828,16.2599697 -0.214750958,20.4681818 0.067816092,24.7890505 C0.127777778,25.7027778 0.885823755,26.4036667 1.78678161,26.4036667 L1.78678161,26.4036667 Z M49.891954,30.7009293 L49.891954,74.2132323 C49.891954,75.1672626 49.1201149,75.9405051 48.1678161,75.9405051 L1.77356322,75.9405051 C0.821264368,75.9405051 0.0494252874,75.1672626 0.0494252874,74.2132323 L0.0494252874,30.7009293 C0.0494252874,29.746899 0.821264368,28.9736566 1.77356322,28.9736566 L2.30517241,28.9736566 C2.91111111,28.9736566 3.47241379,29.2922424 3.78390805,29.8129192 C4.17145594,30.4606465 4.88639847,30.863101 5.64980843,30.863101 C6.41321839,30.863101 7.12816092,30.4606465 7.51590038,29.8129192 C7.82739464,29.2922424 8.38888889,28.9736566 8.99463602,28.9736566 L10.0168582,28.9736566 C10.6227969,28.9736566 11.1842912,29.2922424 11.4957854,29.8131111 C11.8831418,30.4606465 12.5980843,30.863101 13.3614943,30.863101 C14.1249042,30.863101 14.8400383,30.4604545 15.2279693,29.8125354 C15.5394636,29.2920505 16.1007663,28.9736566 16.7065134,28.9736566 L17.7699234,28.9736566 C18.3758621,28.9736566 18.9371648,29.2922424 19.248659,29.8129192 C19.6362069,30.4606465 20.3511494,30.863101 21.1143678,30.863101 C21.8777778,30.863101 22.5929119,30.4606465 22.9806513,29.8129192 C23.2921456,29.2922424 23.8536398,28.9736566 24.459387,28.9736566 L25.4814176,28.9736566 C26.0873563,28.9736566 26.6488506,29.2922424 26.9603448,29.8129192 C27.3478927,30.4606465 28.0628352,30.863101 28.8260536,30.863101 C29.5896552,30.863101 30.3045977,30.4606465 30.6921456,29.8129192 C31.0036398,29.2922424 31.5651341,28.9736566 32.1710728,28.9736566 L33.2344828,28.9736566 C33.8402299,28.9736566 34.4015326,29.2920505 34.7132184,29.8127273 C35.1009579,30.4606465 35.816092,30.863101 36.5795019,30.863101 C37.3429119,30.863101 38.0578544,30.4606465 38.4452107,29.8131111 C38.756705,29.2922424 39.3181992,28.9736566 39.9241379,28.9736566 L40.9465517,28.9736566 C41.5524904,28.9736566 42.1139847,29.2922424 42.4254789,29.8129192 C42.8130268,30.4606465 43.5277778,30.863101 44.2911877,30.863101 C45.0545977,30.863101 45.7697318,30.4606465 46.1574713,29.8127273 C46.4689655,29.2922424 47.0302682,28.9736566 47.6362069,28.9736566 L48.1678161,28.9736566 C49.1201149,28.9736566 49.891954,29.746899 49.891954,30.7009293 L49.891954,30.7009293 Z M46.4436782,33.8869798 C45.7699234,34.1666061 45.0390805,34.3176465 44.2911877,34.3176465 C42.8461686,34.3176465 41.4657088,33.7539798 40.4354406,32.7882424 C39.4051724,33.7539798 38.0249042,34.3176465 36.5795019,34.3176465 C35.1249042,34.3176465 33.7356322,33.746303 32.7030651,32.7688586 C31.6706897,33.7466869 30.2814176,34.3176465 28.8266284,34.3176465 C27.3814176,34.3176465 26.0009579,33.7539798 24.9706897,32.7882424 C23.9404215,33.7539798 22.5601533,34.3176465 21.1151341,34.3176465 C19.6603448,34.3176465 18.2708812,33.746303 17.2385057,32.7688586 C16.2059387,33.7464949 14.8166667,34.3176465 13.362069,34.3176465 C11.9168582,34.3176465 10.5363985,33.7539798 9.50613027,32.7882424 C8.47586207,33.7537879 7.0954023,34.3176465 5.65038314,34.3176465 C4.90249042,34.3176465 4.17164751,34.1666061 3.49789272,33.8871717 L3.49789272,72.4859596 L46.4438697,72.4859596 L46.4438697,33.8869798 L46.4436782,33.8869798 Z M11.2296935,17.1600707 C10.3197318,16.8779495 9.35421456,17.387303 9.07222222,18.2985354 C8.42681992,20.3835455 8.46206897,22.5792929 9.1743295,24.6479899 C9.42068966,25.3634646 10.0888889,25.8125556 10.8042146,25.8125556 C10.990613,25.8125556 11.1802682,25.7820404 11.3664751,25.7175556 C12.2666667,25.4066465 12.744636,24.4234444 12.4342912,23.5216162 C11.9628352,22.1522727 11.939272,20.7000202 12.3659004,19.3214646 C12.6477011,18.4104242 12.1390805,17.4427677 11.2296935,17.1600707 L11.2296935,17.1600707 Z" id="XMLID_222_"></path>
                    </g>
                    <path d="M77.6640625,84.1748047 L86.6269531,97.8413086 L87.6738281,111.507812 L93.4785156,109.166016" id="Path-21" stroke="#9B4D03" stroke-width="4" stroke-linecap="round"></path>
                    <path d="M38.1923828,58 L12.859149,58" id="Path-23" stroke="#EF4407" stroke-width="4" stroke-linecap="round"></path>
                    <path d="M38.1923828,67 L19.5,67" id="Path-23-Copy" stroke="#FFB13D" stroke-width="4" stroke-linecap="round"></path>
                    <path d="M38.1923828,77 L24.5,77" id="Path-23-Copy-2" stroke="#AD7952" stroke-width="4" stroke-linecap="round"></path>
                </g>
                <circle id="Oval-2" stroke="#FFB13D" stroke-width="3" sketch:type="MSShapeGroup" cx="33" cy="32" r="4"></circle>
                <circle id="Oval-2-Copy" stroke="#BB9A6F" stroke-width="3" sketch:type="MSShapeGroup" cx="109" cy="38" r="2"></circle>
                <circle id="Oval-2-Copy-2" stroke="#F75D21" stroke-width="3" sketch:type="MSShapeGroup" cx="109.5" cy="60.5" r="1.5"></circle>
                <circle id="Oval-2-Copy-3" fill="#AD7952" sketch:type="MSShapeGroup" cx="117" cy="50" r="2"></circle>
                <text id="Ik-ga-naar-" sketch:type="MSTextLayer" font-family="Aller" font-size="29.1200001" font-weight="bold" sketch:alignment="middle" fill="#EF4407">
                    <tspan x="8.68351973" y="179">Ik ga naar </tspan>
                    <tspan x="8.53503965" y="213.757148" letter-spacing="1.10000002">de markt</tspan>
                </text>
            </g>
        </g>
    </g>
</svg>